<mxfile host="Electron" agent="Mozilla/5.0 (Windows NT 10.0; Win64; x64) AppleWebKit/537.36 (KHTML, like Gecko) draw.io/24.7.5 Chrome/126.0.6478.183 Electron/31.3.0 Safari/537.36" version="24.7.5" pages="3">
  <diagram name="Página-1" id="2JdULxuEn1RjUNDICijK">
    <mxGraphModel dx="2074" dy="836" grid="1" gridSize="10" guides="1" tooltips="1" connect="1" arrows="1" fold="1" page="1" pageScale="1" pageWidth="827" pageHeight="1169" math="0" shadow="0">
      <root>
        <mxCell id="0" />
        <mxCell id="1" parent="0" />
        <mxCell id="zUi6U6-uBfeqLhvCXvgW-1" value="Actor" style="shape=umlActor;verticalLabelPosition=bottom;verticalAlign=top;html=1;outlineConnect=0;" parent="1" vertex="1">
          <mxGeometry x="460" y="30" width="30" height="60" as="geometry" />
        </mxCell>
        <mxCell id="zUi6U6-uBfeqLhvCXvgW-4" style="edgeStyle=orthogonalEdgeStyle;rounded=0;orthogonalLoop=1;jettySize=auto;html=1;entryX=0;entryY=0.5;entryDx=0;entryDy=0;" parent="1" source="zUi6U6-uBfeqLhvCXvgW-2" target="zUi6U6-uBfeqLhvCXvgW-3" edge="1">
          <mxGeometry relative="1" as="geometry" />
        </mxCell>
        <mxCell id="zUi6U6-uBfeqLhvCXvgW-6" style="edgeStyle=orthogonalEdgeStyle;rounded=0;orthogonalLoop=1;jettySize=auto;html=1;" parent="1" source="zUi6U6-uBfeqLhvCXvgW-2" target="zUi6U6-uBfeqLhvCXvgW-5" edge="1">
          <mxGeometry relative="1" as="geometry" />
        </mxCell>
        <mxCell id="zUi6U6-uBfeqLhvCXvgW-2" value="João tem uma empresa que aluga carros" style="ellipse;whiteSpace=wrap;html=1;" parent="1" vertex="1">
          <mxGeometry x="415" y="170" width="120" height="80" as="geometry" />
        </mxCell>
        <mxCell id="zUi6U6-uBfeqLhvCXvgW-3" value="&lt;h1 style=&quot;margin-top: 0px;&quot;&gt;Dor apresentada&lt;/h1&gt;&lt;p&gt;João tem dificuldade de gerenciar quais carros foram alugados para terceiros, organizar os contratos e saber quantos carros da empresa dele tem dísponível para a data e também a organização financeira é formada por planilhas&lt;/p&gt;" style="text;html=1;whiteSpace=wrap;overflow=hidden;rounded=0;" parent="1" vertex="1">
          <mxGeometry x="700" y="135" width="233" height="150" as="geometry" />
        </mxCell>
        <mxCell id="zUi6U6-uBfeqLhvCXvgW-5" value="&lt;h1 style=&quot;margin-top: 0px;&quot;&gt;Solução&lt;/h1&gt;&lt;div&gt;Ter uma plataforma onde ele pode gerenciar quais carros ele tem na frota, que dia ele estara sendo usado, o cliente que alugou o carro, quanto foi pago pelo carro na diária, quanto tempo o cliente vai ficar com carro,&amp;nbsp; ter a visibilidade se o cliente contratou serviços adicionais ou não&lt;/div&gt;" style="text;html=1;whiteSpace=wrap;overflow=hidden;rounded=0;" parent="1" vertex="1">
          <mxGeometry x="110" y="115" width="190" height="190" as="geometry" />
        </mxCell>
      </root>
    </mxGraphModel>
  </diagram>
  <diagram id="M_MSPRT-iNCtAvdzJHHa" name="Página-2">
    <mxGraphModel dx="2074" dy="836" grid="1" gridSize="10" guides="1" tooltips="1" connect="1" arrows="1" fold="1" page="1" pageScale="1" pageWidth="827" pageHeight="1169" math="0" shadow="0">
      <root>
        <mxCell id="0" />
        <mxCell id="1" parent="0" />
        <mxCell id="5THAKqSvYs4e9Wb2J6YV-1" value="" style="rounded=1;whiteSpace=wrap;html=1;" vertex="1" parent="1">
          <mxGeometry x="160" y="350" width="120" height="60" as="geometry" />
        </mxCell>
        <mxCell id="5THAKqSvYs4e9Wb2J6YV-4" style="edgeStyle=orthogonalEdgeStyle;rounded=0;orthogonalLoop=1;jettySize=auto;html=1;entryX=0.5;entryY=0;entryDx=0;entryDy=0;" edge="1" parent="1" source="5THAKqSvYs4e9Wb2J6YV-2" target="5THAKqSvYs4e9Wb2J6YV-1">
          <mxGeometry relative="1" as="geometry" />
        </mxCell>
        <mxCell id="5THAKqSvYs4e9Wb2J6YV-2" value="Actor" style="shape=umlActor;verticalLabelPosition=bottom;verticalAlign=top;html=1;outlineConnect=0;" vertex="1" parent="1">
          <mxGeometry x="205" y="160" width="30" height="60" as="geometry" />
        </mxCell>
        <mxCell id="5THAKqSvYs4e9Wb2J6YV-5" value="Quais são os passos que tenho na minha cabeça ?&lt;div&gt;- Teremos um site para realizar o login ou&amp;nbsp; realizar novo cadastro&lt;/div&gt;&lt;div&gt;- Nos tokens teremos roles onde define se o login é do funcionário ou do cliente&lt;/div&gt;&lt;div&gt;- Quando o cliente chamar o login&amp;nbsp;&lt;/div&gt;" style="whiteSpace=wrap;html=1;aspect=fixed;" vertex="1" parent="1">
          <mxGeometry x="470" y="50" width="450" height="450" as="geometry" />
        </mxCell>
        <mxCell id="5THAKqSvYs4e9Wb2J6YV-6" value="" style="shape=image;verticalLabelPosition=bottom;labelBackgroundColor=default;verticalAlign=top;aspect=fixed;imageAspect=0;image=data:image/png,iVBORw0KGgoAAAANSUhEUgAAAf4AAAD7CAYAAACL1fYiAAAAAXNSR0IArs4c6QAAAARnQU1BAACxjwv8YQUAAAAJcEhZcwAADsMAAA7DAcdvqGQAAG1RSURBVHhe7b0HfJzXce79YPsudoEFFr0DRGHvnRQlUr3YkmXZlluKHZdEqXaK4+vEubm5iXM/J76Jb5od965uNVaxdwIkQPTee93eF9+ZASCSEkWRIkiCxPyp94fdd9++EJ6ZOXNm4iY8/kkIgiAIgjAv0Ez/FARBEARhHiDCLwiCIAjzCBF+QRAEQZhHiPALgiAIwjxChF8QBEEQ5hEi/IIgCIIwjxDhFwRBEIR5hAi/IAiCIMwjRPgFQRAEYR4hwi8IgiAI8wgRfkEQBEGYR4jwC4IgCMI8QoRfEARBEOYRIvyCIAiCMI8Q4RcEQRCEeYQIvyAIgiDMI0T4BUEQBGEeIcIvCIIgCPMIEX5BEARBmEeI8AuCIAjCPEKEXxAEQRDmESL8giAIgjCPEOEXBEEQhHmECL8gCIIgzCNE+AVBEARhHiHCLwiCIAjzCBF+QRAEQZhHiPALgiAIwjxChF8QBEEQ5hEi/IIgCIIwjxDhFwRBEIR5hAi/IAiCIMwjRPgFQRAEYR4hwi8IgiAI8wgRfkEQBEGYR4jwC4IgCMI8QoRfEARBEOYRIvyCIAiCMI8Q4RcEQRCEeYQIvyAIgiDMI0T4BUEQBGEeIcIvCIIgCPMIEX5BEARBmEeI8AuCIAjCPCJuwuOfnH4tCIIgvE8ikQhGx8bhDwSQlZEBg0E//cnVQ8fo7u1DWmoK4i2W6bVXRzgcweDwMMwmE+z2RGg17/Tr3B4PWts6YTQaEI3GkJhoQ1ZmxmW3vdFEo1F1zWFotTro9brpte/OhNOF8fEJZKanwWQ2Ta8V3g/i8QuCIMwCTpcbv35jN773419iZGR0eu21QUJ44lQFxiec02uuHpfbjZdf3YUzZ6sQDoam115KW0cX/vb/fAs79x7AS6/vwi+e/zWGhkamP7250D1W1dZjYGhoes2V6R8YwvHTFbyP2+OdXiu8H7Rf+erX/mb6tSAIgvA+iMViGBgYxJuHjsGlDICiwnw47HY0t7Wjpa0DTqcbPr9fefP96OzqQVdPL3TK023v7GJvOxAKo6GxGcnJSZicnITNFs8inZBgxfDwKIsjeciNLa0YVkZFIBSCLT4eGrWvx6u8eLUtnae+qRnZyoNPSLCho6ubF71OB7PZDE1cHAaHhtV5WvAXf/IM1q5cjmMnz0Bv0CNZXSvtS8f2+nyIU8ft6OxBZ3cvvF4v39OEEuo4dYzu3l4ElWExNDKC1vZOJciD6vqGMaSuk+5rUv2jaEVjcyu/Hx93wma1oKevH7X1jRibmODIA13LwSPH+briLfH8ea9ayIDS6fR83G61P22n1+sRCgb5eew7eASJCQkcrahRRgBd85i6Nrtap9WKL3s1iPALgjCviQRjcPaG4OwJYaIrhOFmP8baghiq96P3nBcD1T4M1FxYBmt9cPUF4Vhgnj4CEFKeelNzG+oam5CclMShaxLxV97Yi3Pna6Az6FhISfi6e/rYQEhOsuP1nfuUiNl4eOAHP30WK5Ytxr/+x/fhSE7Ga7v2IjsrE+WV1WhVBgQZD6fKz2F4dEyJ5ADyc3M4ZH9eid/h4yfR3z/EXnFeThYLKJ2rsaUNbrcb+flqW4OBRbT83Hk8sONumI1GNLW2I6iMCJ/Pj0NHT7LoNre2sbCfOF2O0fFxNkRoeIC2pWGENw8dVfcbQmV1nTpWFQ9vHD52EgElzM3qfGQM0PDBL1/4NXvmVTV1cDgcfO179h9Wxw6yUUBGCxlBdnuCMkwsLPLtHd2oV88wNhnjyEWfuh+ny4MUR5IyIvrYCPJ4ffD7A4jGouoZ7UMkSttWonhBoTIwrNPfiHAlxDwSBGFeEQ1PYqI7iPajLpx/bhSn/nsIh/9vHw78Yy/e/N892Pv1Huz+62688ZedeO1PO/HqlzsuXf60Aye/c2l4OhAIom9wEDlZWVhQWKAEdkR5yR5Ylae7ZtVyPLD9bvaWi4sK8eiDO5CVkc7Cd3kmYVfebHpqKk6erkBPbx9yc3IwpjzndatXYPOGtZwLMKZEOax+9vUPIi3FgcceuhdF+Xk8XFDX0KyOkYASJYa19U18LSTgl4O27+0dwJqVy3D31o18zCYl4DarDU89/hju2bqJcwYux+KFZbj/nm3QKyNi0/o1uPeerRxRoPOPjI5jUWkJQsqwaGxpgUkZDSuVYUPb0bWEoxFlIKQjNzsLZcWFWLZkobreArV9GG3KeKAIx3Z1PR/+4CNs5KxYtgQL1fEK8nLQ3tWNGnVfdP5H1PM0GozKSBicvirhvRDhFwRhXhAJxNBT4cWZ7ymh/1Y/9v99D/Z8vQuH/6kXfcqzD7qj0JnikFpmQtYKC0ofTMKGz6VhyzMZlyybfy8Dq55OmT6qkmklYhMul/JY+2GxmPg9eaUUno9T//RaLYs8yS79pNC2+o8NAfo5qbZ5uyiblJAuLF2Ak2fOcjQhNzuTQ+hadSytRh0vTh0vNrUPrdOoRR2KDspJe+RVBwIBJd7xHEUgT/1i6Hw0XEAePoXl6dgadVy6Jjo2XZVGo16zcULXOXWN/E+dduZ6tdPbTG/F+8TUZ36/nw2IqFqWLirjhDw65tRWhDpeLMavouonRQnOV9dhYmJCefBR3pLOEVP3GAgG+HkePX6KIxnBUHDqs8mYum96nmqh86r9hKtDhF8QhDuasBL83rNeHP/3AeXV9+DIv/Sh+7QbeosWZQ8n4Z4/y8b2v8jGjq/QkoPtf6l+/mWOWrJx7//IxY6vqtcXL+qzZU85po9OmfhRDA0N8xh+SVERh+et8RZ0dPWw10rolEBlpqfymP7BYyd5PJzGoykEX9fYiDMVlSx4M5AIFxcVQG8woDAvF+lq32TldZ+trEZF5XkWuiT1XqfTITXVgZGRMRw8elJ5//08Zl9YkM+iGQlHkKe8ZRJ3Em9iZHQMr+9+Ey+9upPD5csWL0J6Wioqq2vVdVSxkNM5ncqY2b3vAJ+PxthJcGfC7yTWV4K8eLper3om8fHxyrPPnP7kAiYDGSNx6poHOBegd2CABZ6eGUUwKDdh78EjfK00hNHS2sHX5PUGeP+SwkLUNTRxngBFXDIzyLgQrgaZzicIwh1JLDrJ4/b1r42j7bAL/ee9sDh0KNyagKK7ExGfqoM92wBbpmF6j/cHCVWvEi8aP1+2aCELbFtntzIEfOyN25QRUJCfx1nsDU0tnBR37GQ5PvTog8hQYkVj1+Qdky+8cd1q9vJXr1gKi8WMc+drkaO8/ZzMDPQPDvHYuEGnR6oSxgVkGOh1GHe60KTWTzidLPalxYV83u7uPvbQKeegRK2jMX5KhDtw+DgSbFZOSMzMTMeSslJOuKtVIkrHtifZkZmWwuF0igikOpKRos43oM5Pww2RSJiHECgvwGg0qWtJRl19IxaWlfAxq+sasH7NKpyvqeXvQKONU9sXqft3cRg/Iz2FpyxSDoRLXTsZETQswVMh/QE2pCg5kp7nqzv3cMTgnq2b0T80xFEMnz8Is8nI5ytXhohJ3ZdRvafIBt2j8N6I8AuCcMcRCU6icZcSs1fG0HfWA51ZebF3JaDk3kSkLTLDnmuc3vLmQwlq3/3xL5SYbcTaVSve13z/+UBrWwcOKG+e8gZojH9q2EGYDUT4BUG4c1B/zQbrvDj381FO3nP1K+9Uif3yjziQWmJGYu6t9wgDyqttUqKWobxqh/Kmb0XxnNsBipCMjo4hKysDFvOFGRTC9SPCLwjCHYF3NMJiX/7DIQzW+mFL12PNb6RiwfZEpBRLpTdBmEGEXxCE2566V8dR8ZMhuPpCaglj+VMO9vLTFpphtGmntxIEgRDhFy4LJdxQYs/g4DBPnUlMtPJcWUrAoeQbwpFs58zioZFRmE1m9ToBLo+XM28TbQno7unhbOBIhGqCW7moh06rVe9pDvIETztKS0uBy+3hIiMZqSkwGN977JWuhxJ/KKPZkZz0VrYyraeCIZTkRNXLKMHpclDSldfr5+QpKlRCWc7BYJiLhFBGtNfrQ1pKMobUeqpoRhnaM+e4HHReSs6KqediMBquOBZJ9dT7Bwf5uil8OXNcqr7W1tGD0qKCS+qQU3EVuj6a3kX7XA76rkZHxqBVz4Pmf19835RsRRnRZnVMKhhzMfQZTfuiKmlXUyudGB2bQCDoV8/KccVEqmAgiIGREWRnpPP3dKOof30c534xgtHWACa6gjwNb9MzmchdbYUtU8bOBeFySOU+4bJQic7Dx0/hzUNHuBoXTT+ispy79h5AS3sH6uqbMKyMABL7l1/dzfN2c3KyUHm+Brv3HYJRb8C3/u078Pr8qK5vwPmaepQUFXI2MU3Z2XvgMBqb27CwpAjnKmuw/9AxFBTkqs9t01fw7pDQnqo4pwQ8wPODZ4SW5g/39vZxJTMqZHI5waFtqLhItdqG9qMqZkdPnFbXV8dzsanG+uGjp5CXl42zlef5esm4uZLwkyHU2dmN9u5upChxJmPn3SCD5eXXdiIjLZWLotCcbuLUmXP423/8FtasWoG01AtTxcZGx/Hy6zv5Xml61+UgQ4ru2evzwpGUBN1FIk4Z56fVsyLjIF0ZVhcbSfQ9nKusVdtruXrc1UAV2mhKV15ONs8Rvxx0bMoSf+7FV3m62tV8p1eLfyKC1gMuno534B/7UP3iKAZrfOoe4nDfX+Vg4xcykLPKCpNdvHxBeDdE+IV3QFOCaLrNyVMVuG/7Xdhx1xYWM6rVTTW/P/jwA1i2dCHqG5thNpq4YhZ5owX5uVxfm8qJ0jxeqhP+pd//PLZuWqfE9ASXF6XKZeTFtrS1s2AuWVTKlcdoqhLNHaZz0H409ccX8GN4aITFioqhUH1v2qe5tZ2PpdNpYUuwsmjTXGCKIliVGFH0IVEZJF3dPWjv7MGY8lKNymMmr5kSq2obGtVdxvE90fSqbVs2cOYwzY32K091RBk0yxaXqe1NSoRTuRQpTVGiKVs095pqmVecq+bKaaPqnDqNFqfOVipBPI+83CxlBAX5/mjqFHUeI2+b7oEEsU6dm6ILSxYvhHW6+xpVTntt9z60qPvKzs5UxlAxfErE69Tz7ezp5Wt0OCiyoUFTSytPB+tXz4x+Dqpz6JQBY1DeNxkplBBFddvpe6DrpHru6rTs7dPzIgOBjBvaz+8L4KVX3+AIAd0XGXMTLg9HbMjQ6+3v5++BDCTq+kblVek5UJSgVBlsVJ2Onkmv+r7p94KKsLR1dHIHNbpnilTQ8ywqyOP7vFrCvih8oxG4B8MYqPVhqN6H3govTn9vCMf/rX9qet4RZaQ1B6AzxGH976Tj/r/OQ/5GK6zpBp4+JgjCuyPCP08Y9kTRMRZBw1AIdQMhNA2H0Dy9tI6EEYxOIs065SlSCJj+mDc0t3B5zeysDPasSUCpdneh8qYpTE8iRKF6CiVTmPztwk/FNbZv2wxrvJWPRfssX7rossJPRUFoLm5VdS3PF6b5viTkJKbxFjN75jTsQLW46VjUiezg4ePIzMzAf33/p/B4fMqrjfA17tyzn6+FOpCRwdCuhJDmSOfkZHIEggwHMhAoA5w800VlJTxdiK55ZGwMPT0DykDJx49+8TzPYSYBpvOTcUHXSt73937ySxZSEsL4eAt78gPqHsirbmptw/nqej6vOi2y0tPZC6fhgKMnznAxlgVKDGciAzR88vJru7B4YSnf4+qVy7hYyStv7GGR7e4dYOFuVPd9qqKSp4NVnK/mIZL6xhZlJAT4+khwa+obca6qmsul1tQ18j3Tscnzp+f98uu7oFXXTeckw6NCbUtDGXRfVCjFpoyHQDCkBH9cCX0vn5MMBIrYUPEZKrRCRkaGuod9B49yKdgTZyrUseLxxt79/J3TfZEhSAYkbb982eJ3REy8AxE897kW7P9GL05+Z/Ct5dR3B3H6+0M499MRVP1qlEW+ac8EWg+6MFDnRyw0yeKev9mGbX+aha2/n4mibQmwZeihNUh2vCBcDfJ/yh2OMxDD/hYfflTuxL8fH8c/HRzFP+ynZeyt5RsHxvBKrWd6jynIO6Xl7VCDkGOnynFIefDUIStTidqVxrSvFjpXWIm9UgjkKhFeqjxuKjzydsFISUnG+jUrlXDmIxQJY2LMyaK+fdsmfOixh9nrpXA+GQ3hUASPPngfihcUKM+5BxHlWVNYnMqITpUnnT7oFaAx+ROnK5TXmouy4iKuYkbj1+TFPrBjG59vaHiEK59RMRYanyfDhQwiixLUru5eFmiCcxk81HAk+ZLhAOqqRmJKx6PhFIqg0JKbm43HHr4fC5QRQpDRs3bVcqxdvQJ5ykjZunE9sjMyWMQpKjED1Ue/f/s2bupCXcvoeRBev48jH8WFBVi/eiUbIFQznowkKqCysLQYjzywg2uzr1i6BKXqful7aWlvZ6Pqrk3r+ZzUOY6MPcoLoGteuqQMbZ2d6kuMYcPaVfjIE4+hIC+X56dzM5WLKtLN4BkNoq/KC3d/6JKFkvM8ytP3joYRcEa5LK1BGaSJeUYsejgJD/5dPj74zwXY9kdZyFtrQ2KOAUbrVKlZQRCuDhH+O5ia/iCerXTh20fHcbo7AL02DpsKLHh6VQI+tebC8vFVNqzJuWi6k/ojSg01SIycThdXBmtp64RTedkkzuRxtrR3sndIIkaNSHyBAIskiZvJdGm4ldppTqhjzIwJU1jZZDByQptfeZd+9TmNM1N1Myp56vP6cbaqBt19fcprvFC3e1IJC3Upqzxfq47nVgJ+QVAuFlKuJ67+kUFCYWwKkdP+dEWUyEYeL4XXSaTJC6aQ+FRVtVYlzD7edgY6J31O4XkS8k3r17KnTzozJTZT55qBjkvlQ+lnTlYmiywl/BEUEaBhCPKGZxLw6PzVdfWcR+D3BXk4gkL7dGya300/Z6qbU/hg6r16Nf0Znf/t0OqZevAX30vpgiKUlSzgEP3hY6eUcXSh5zsdi+qe009qu0pRg9GxMTaUaB21kFUnpS15ezruTC13vfqMvHv6zDD9PdB7isokKoPicoZhQrYJKz+WgqxV8ZcuKyxIW2xB6kIzkoqMsCTrEacelWcojOY3x7H7rzqx66+6cep7Azj//CiX4qXPLrpNQRDeAxH+O5RqJfo/PevCL6vcKFR/PH9rbSK+sDEJX9xkv+zyYNmFRC0SDSrDScK1//AJvPjKGyivrGLvjbppPXT/dty1cR2Px7vcLvYUqbvXKzv3oKa+gQXGZJqaAbBzzwE8++vXWUAWLyzh4xv0Bh4LJ2OA6oXTkAElixkMOuVZRhGOhtmLprFrEkgal6bwPoWgyZMnD5ky8+n95SDBpFkFcUqY3jx4FJ3d3XzdlPVOTVQS1GdBZahQ+Jw8XSqf+qsXX+FkPnXrcHmmxrhj0Zi6Vh2WL1mECZeTvc/8vOxLsu4JEjaLWkdeNw1jUJ1xMlhohkBqqvL8LWb2eilUTs+Vkt2mRJuKlEygraMbK5cuRrzVjFUrlnK4nq6LwuQHj5xAjzKAZgOaOUGnJaOEcgcI+p6opvxbEQOloJTY2d3XD4/Hi0g4CntCIgs9tWA9V13Lhll6Wop6hiEcOn6Sh0KoFSwffJpwOMTDPgsK8y9boMZs1+L+r+fis68tumT5zRcX4uM/LVFLKT76vQX4gPLuH/7febjnT7Ox9rfSkbXSioArivrXJ7D/Gz147rMtOPbtfk72cysDQBCE90bG+O9AuibC+OU5Fyr7gliZZcYnV9uwId+MDJsWJv2UJ3glSJQoeY76ZBM0BlysPHESvTQlZFQ7nMb8LRYLUpKTubIWhX2pa1h+Xg6LF2WJm5XgUSicvFgaty5V3iYJOXmKVquVj0udtUj0Vyjho+0oCqDXGTi0TiFriihQZ7G0lBSuzV2Un8/hahpXp2tZvKiExZXC0hazRV2HFqkOB5/LnpDAYk8GDI2fW+PjWYToGuh60yg8rxaKCFAeAbX8LFTXb7XakJ2VrsQtjWuMU1if8hNoG1poWiIJeH5eLoffqXMaDXnQvWYrAyMzI52NGzIaqFEJDYnQM6Vj5OZkssEx4wWTx08NVDauX8PhcRo7p/cL1fXT86PXJKp0bWS8UCMSGkag2QN0TpsyIrIyMtQ9ZiA/N5e/l5zsLG7ckqSMh8L8XCTZ7ZzDQJEHStajKX9knFELVPLIE9Ux6Dug49OxKFGPvlv6HaDhgEXKsMtQ56L3Keray0oXqOe9AAnqO6Z7zFT7UO4G3Rd9/xS9IKOMoie0noyLq0WjU7978VpezHYdErMNSC4wIXOZhWvsF9+bgJzV8UgtNsOUqGUjoOO4m8vzBl0xmNTvuCVZx8cRBOHyyDz+Owwa03+uyoWXazzYkGfCh5fbUJyiREgynd+Cog/kmdPwwExoWphdKJGRIkQ0vDMT3ZhtKAeg+4wbzW861U8vZ/+nLbJg0xfTkL3KCscCqdYnCJdDhP8O40CLD/99yqmEHvjiZjvW5piUlyuiL9y50Nz+3nIPqp4fxVhbEJ7hEAo2J2DpE8nIXmPlCIAgCBcQ4b+D6BgP4wennTjdFcAnVyfgQ8usiJcpTsI8wT8RRU+5GzUvjaF5nxPmJC2WP5WC4h3Ukc8EvVmK+ggCIcJ/hxAMx/BijQc/KXdhc4EJv73ejuxE8XSE+QUlIVKW/8n/HETnCTdGWgLI22BD2UOJyNtk49wAQZjvSHLfHULXRARvNHh5PJXG9RelG9Xr6Q8FYZ7AianxWmQsi4djgZGL+gzX+9F+1A1nVwhhbxQ6k2bWw/+UN9LZ3cMljesamzi/gfo8zHafAspN6ejo4oJXFyeJXgmqhLn34FE0tbTxVFiaAUrJqVfKvZhwuVFZXcvVGmmGjcvt5em71GvjSpytquZqjpQA+3bIKKMppFSki6aH6rQa1De1YFAdn6a4Xs29UGnwoyfLp5KHL5pdQ7Nmevr60djcysm+M9NlhcsjceA7APL2z3QHcK47iCUZBixMM0KG9YV5i/rdj3foULzdjru/nIXNz6Rzl76uMx4c/GYfDv9TH878cBBth1yzNgWQhJL6LZDIetw+JZo1PGXy4joKswGJNdWhuNqmSgRVYDx15ixfC1WCfHXnHq638W5QDYa+vgGUnz3PjbooAZZmy1xNkmZldR2L/+WgRzE2NobT6jlRRU0q51xd28ALTZ29Gkjgp2pUXHot9J5KZ1PRqKlKF8KVkFD/HUDbaAj/fdqJuv4gPrvBjkcXW0X4BWGaSCCG4aYAeis9aN7rxGC9XynIJKyZeiTnm5CQpUdijpFnARisWhitGmj1Gm7nS3kC71X7n4Syrb0Dr+3ejy0b16BkwQLuwEjTO30+H5cxDobDWLVsCReQOqlEmP7/pCmS1OSqqbWdO0JSzwiP14+DR45xmWy9Vo97tm3mWg8k3DolwFRCmqZVhoIhrhZJDbOoDDWtdyQno7axkWsv0NTMFcsW85RWKtZE5/zcb3+Sq1d+/e+/id///Ge4PgQVrrInJnKtitPl5+BR10tTaN0e5fGfr8Xqlcu57gRNASVPurWtQ4n3OJKSkrBq+RKOOlD/i8MnTqvr8GL/oeNcyfFTH30Se/YfRigU4k6ZVPqbqmVSAa431HPadtdGnmJKZbXJINm8fjVaO7q57DRNV6WqnVQHpHRBITo6u3h6aZBqQ/QPIqR+5uXmcj+NX7++hw0Bmj1ClTNHRsawZuUy9RyaMTQ0wtNVqUYGTUsVLiCh/juAk10BPFfl5up7JPp2SWIShLegOf22dCWaJWZkLLVwTQBbpgHR0CR6z3nRedyDvvNe9KnXHcfcaD/i5t4ArQed3AmwcbeT6wTMLE27JzBY6+N+AQT3tugfQGNTC9atXsG1FkiIaf3pikq4PB4EAiHuJ0FVIKlQFNW+oJoNJ05VcPEnmv5IhZwCwQDOVFRxLYxT5WdZuFpa2jEwPMz1FKgVcltHF/fSoLoWNJRA+3Z09rBQNqltKWxOJa1THHauJ0HhegqDr1m1nItuHVfnLCrMw0kl9NTxkbpVkvieU0JPAkoNmMiwoPLcuVmZfG9UKZMKQFFhKxLRlBQHUlOSuFU3XffBoye43gVty/UztFp1vBquTVGu7pc+o5oXJOzUK4O6NlKRKirGNTO9lkpdk8FCdTicTieqauqQkZaGs+o4VGAqJyuLy0WTYUNltKmZ1U9++SLXqqBumgODw+pc1eq6HCg/W8m1LgbV9YYjYa5TcTVDCfMFeRK3OZTJf6zNx1P2ylKNyE6QhD5BuBx6iwbpSyxY9GgSNvxOOrb/eTYe+l+5uP/rOVj5tIONATIS/OMRuPtCbAhUvzSK88+NXLJUvzCKnrPe6aNOMdMEiTx2EqWfP/cSt7Du6OzmxlHUzIgqSFIZYyqotLisjPssUHVGWkfVFKlrJP0kT37pooUsniNKuEbHx9T2JcqTXYHCwnyuSEmhbTICSLDdbg+X1vYHAjz2vaismIssUUGrGTq6e/Djnz+P1/bsx45tW7gqY78SaYo0ULfGjq4uLpS1UBkXSxeVcXEsKsREIkrrKXxOXveEEmQSf22cBjrN1N8aamyVmGDl6AA1n6ICXdQ8igwRinhQcysyCN4NEmQq3kUlwamjI9XXoMJbF0P3y6XB1fGcbqqsOYJwNMIFuajR17LFC3nMP6a+B+qHQeXG161eibSUZL4OMi6EC4jw3+aMeqNoV+JfkKTDwnSDzNkXhPeAxJ2S+1JLzSi+1849A9Z/NgP3fjUHD/5tLh79xwI8+s0CPPnvRXj6hyV4+kfFlywf/cECbP+L7OmjKZQoUXtqGl/2+f0cGqeyx9TJkvo6ZGak4t57tuDh+3cgzZHMQkfiyLuqf5QIt3XTevzmx59iD3rqE+otMdXKmV6RQPPr2NRYOHnINXUNaG3v4MgBecIEHftCH4cLUKLhujXL8cD2u/DAvXezuFptViWaZfjokx/AyqVL+LzUR+Ny0OFKigvx4L33KC8+h8s3d/ZQL42YuncjAoGw8sQjiCjhJahkdVJiIlYuW4Lf/MRHuB03HYPKXesMOhbjqR4YQR7uoOt4SB2bKk9W1dSid2CAh1Bi9E+dg3qE7N53kA0sLu89XXiL7vPiRD46Bz2DmSgCXQ8bSmqdcAF5GrcxlNRH4/udykNZmmHE2pyrL40qCIISOn0cZ/lTMmBKsQnpiy3IWmlBzpp45G20cQ2Akvvsly7KWMhcfsGbpjHmzMx0lChxo1bKL7zyBifg3bV5A7d67lICSdn+1NFwqlXUFJQDsGrFEk6Io26XA8qLnTEIZjAqb5saPR0/XY7//vHPcfDoce46SeeMRGPo7OzhJDzq6ngl6FyLykq5dDWF2KlZk0l5xfsPHeXweHTaoHg3qMNjZ2c3jhw/zb0t3F4v99Yg6B5piOJnz72EU+Xn+Fjr1qzCuHMC+48c5+Q9gkSaogg0DHHg8DF89wc/4ygFlQOnfhH0DI6fruDEw3wl7lptHIv96YpzSsTDfA2nK6pw5mwVJwZeDo0yAqiMOBkLP3/+ZZ5pQW3E32s2wnxDkvtuYyjM/52TE6gdCOI31yXiyaVTY46CINxcyDv1KDEcHR3j99QXIiHRxp0aKfRMQkRj3OSd0pQ0Ggen3gkkchQ+Jy+VOjeSweCnZL0UB4ZHRmG1xrMXTq9pX4oI0Lbk+ZP3TGF+amxFULicGklZbZZLwvxuj5dD+zSFb2Z6IXnENI2OrouMDZvVBp86L0UOLGYzRy68Hh8s8WbuTEnRBopeUAIfedFmgwmJylOn4QbywqnjYySqvGzlwVNTJ7p3GrOn81Hkgu6HZiLQcyJPnzo/0rnj1XXakxLfek5kNFiUsWNTz4+eTSAU5HwDuzIYCDIUCDon9cToV+fISEnhZ+nx+vg+HUl2bgDmV8YIPS/qWfH2xlrzHRH+2xT1/yEq+wL4PwfGYDNq8PmNdqzNlV9uQRAE4cpIqP82JRiJoX0sjJ6JCErTjCL6giAIwlUhwn+b4g5OKuGPwKq8fYdFxq8EQRCEq0OE/zbFE46h1xlBZoIOSzMM02sFQRAE4cqI8N+GUHZrvxL98m4/Uq1a5CdJT3lBEATh6hDhvw3xhyd5bJ+S+hamGZCmxF8QBEEQrgYR/tuQCV8UZ3sDsJu0KHJImF8QBEG4ekT4b0O8YaB5JASrKQ5p8eLtC4IgCFePCP9tRmwScAaiGPHGkGnTYVG6ePyCIAjC1SPCf5sRiMTQMhKG1RCHgmQRfUEQBOHaEOG/zXD5YzjbE+D5+7l26cQnCIIgXBsi/LcZ/nAMTcMhJJo0KHLIND5BEATh2hDhv42gBhcTAVqiSLPqUJgswi8IgiBcGyL8txH+yCSq+4M8f78sTcb3BUEQhGtHhP82ggr3UEc+o07DHr8gCIIgXCvSlvc2oscZxueeHURmghb/8Egq0m03TvypL7bT5cbg4DD34k5MtHJv69GxcUQiU/2/Hcl2JNkTMTQyyr3Ek+wJcHm8aj8XEm0J6O7pgV6vV9vHeP+szAzotFN1B+iY1Cd8ZHQUKQ4HEmxWXn8xNLQRCgah0Wmhp77ecXHTn1wd4XCEe51TH3O6zivtT+caHBqGVqNBsrqvmb7lgiAIdxrar3z1a38z/VqYw0SVMHVPRPFKrQel6UY8sfSdQjmbuJToHz5+Cm8eOoLmljYMDY9iQAnjrr0H0NLegbr6JgwrI4DE/uVXd8Pv9yMnJwuV52uwe98hGPUGfOvfvgOvz4/q+gacr6lHSVHhWwIfjkRQfq4aP/rZc0hKTECu2vftwuwPBFCp9ouEwmo/mxLwawtQeX0+1Dc2IxAIIi015YrCT0bCK6/vQW9/P/Jyc2AyGqc/EQRBuLOQUP9tQjRG1fqCymMGUiw39msj73doeAQtLe145IEd+J3f+AQWLyxFLBpFYUEePvHUE/jkxz4Er9eL3t4B9t4vR2qKA5/59NP40jOfY8+9uq5++hMgGAyhs6ubjYn2rh72/jvU+86eXgyPjKKlrR0dnT04fPQkTldUYmR0jEW8qrpWGRF1HFmob2jGqfKzqDh3HmerqlGl1ldUnsfA4BBcbg9alYFiMOhhNBjYcGlpbceEMmi61DnaO7v4Z1VNLc4pY2VsfJybHwmCINzpiMd/mxCITOJQqx9d42FsL7ZgsfL6r4aQ2q/XFVH7RdCh9q3pD6FxKITm4QsLFQQa9ESQN93lLxaLobdvAA3NLdi0fg2yszKQmZ6GsbEJjCqBLMzPQ1RZIk0trUhLS0H/wBBSHEkoyM9VrwfRo/bNzc5CXUMTtm/bDGu8lY9F+yxfuogNhaGREZw4UwG9EmWtJg6pDocS8XPoU/tGwmGcVK8jkQi6e/o47K7T6nD0xGmMTTjZEHA47Hh9z34+h8vlwZ79h9RxwcZBn7oGYFKtOwKf8vrp3AF/EOeV4REKhXmbjs5udZ39/FlDUyvfNxkcFosZC4oKxOMXBOGORTz+24RwdBJNIyFYDBqUpb53Rj8JfqcS+jfqPfj+KSf+49g4/vXwOP7xwBj+Yf+lyzf2j+JXlZ7pPacgcb6cJz+sPO9jp8px6OgJJCYkKIMgHRrNtf0aRaNRjihQCH7zutW8fy+L9aXQEIAjOYmjDC63S4l9MkcgsjLSMTAwjJgyJNatXomH7rtHGQsR3Hv3FmxYuwq19Y3o7u1Hfm427tt+FxITExEKhxBvsaD8XBXcHjeMJiNHEVKSknm4orO7Bx6vd/rMgiAIdy4i/LcBMaW/A64oageCsOjj3nMqnzsYw4FWH75/2onvqaWiN8Dj4wtSDHhymRWfWpNwyfKJ1Ql4bHH89N6KuDiYTCYYlDfudLowrpaWtk443W6Elcc8TGHz9k7YbFbl6SfDarXAFwjwODmF2E0mAzTaC+PpFOafUMewWafOEQyF0NXdyx49iT6N93cqD5ySBsnYoPtVZgdvOwOF4TXqujRxGrWPFpOxmLpO9QtM4/b0n1o3w4zBQol6dHzaxmq1IjnJru6jAz5fkK+brjegri1LGS9FBfkwGmWKpCAIdz4i/LcJEaWGk0rhUqx66C8S1bfT54zg1zUe/FAJfo0yFDbkm/Hb6xLx+Y12fGFjIn53sx1f3PTO5cGyC8JPQpmakoycrEzsP3wCL77yBsorq+D3B5CVmY6H7t+Ouzauw8SEkz3xhaXFPNb/ys49qKlvQOmCIiX+UzMAdu45gGd//TqL/OKFJSzKHo+Xw+xlJcXISE9DemoKJxPSeWnMn8bpJyZc0Bv0MJtNGBwa4eQ+mj1w8NgJtc0QUtNS3jXSoNXq4EhOZi/+yPHTcHk8KFDef3ZmBtJSHDwboagwn89NNkKcOg4NZdBww+DwiLonNw93CIIg3InIdL7bAArbf/eUk8P2n92QqLx22/Qnl0KlfF9Won+8w4+UeC0eXhSPzUr406xaHke/Figc39s/gPrGFiWCUWRnZSHeYuIs/bycbOX5hzicTsYBhc1r6hp4+h8J/vIlU+P4h46dRLzZzFMDMzPSsEytp2l5lMjX0NSCwrxcOJSBMTAwyHkCFosFI0rcvX6f2s+CstIFGFHGA43TZ2VkoKunB8FgmO9l8aIy9t5TkpN4CODM2SqsX7OSw/jt7V0oLV6AxuZWjhTYbPFYXFqCgLpmSiCkmQU52VnoUoYBnZeSGXOyMzgHgcb5ySBJTkp8V8NCEAThdkaE/zbAG47hy68MoXs8zJ7740vfKfz9ytP/ZaUbOxu9KE014KPLbVibZ4RFL+IlCIIgXEBU4TaA6uVQNr7drLus6HtCMRxu8+GQWkj0P7Xaho35JhF9QRAE4R2IMsxxKBzT55wKb6daLySwzRCMxHCyM4CXar2IV0L/gUXxWJ1tgkF3baF9QRAEYX4gwj/HoeSzmv4gdOqbykx4ZxnZjrEoXqvzwBOI4t4SMzYVmkX0BUEQhHdFhH+OQ8Lf44xCr9VgyduK9nhDMZzt9aN6IIT1+WZ8cKkNCUb5SgVBEIR3R1RijhOMxlClPH6DdhJLMi7tv986GsbrdV7k27V4oNTCmfyCIAiCcCVE+Oc4I96oEniq2KdFYfKFAjPj/qmx/SH1+cosE4/rC4IgCMJ7IcI/xxnxREFT8BckX+rt9zoj2NvkRa5dh80FMq4vCIIgXB0i/HOcN1t80CnlX6G8+hmcgRiOd/jY61+cZsTKbGkoIwiCIFwdIvxznHM9AZ7Kl598IaN/zBvByS4/chO12F5sZsNAEARBEK4GEf45jC8cQ9dEBDajBhvypjx+v1p3ti+IpqEwMhP1WJ0jY/uCIAjC1SPCP4ep7A1Q4zlk2C5k60/4YzjW7keOXYf7Sy7qqCcIgiAIV4EI/xymUXn11HW22DGVzU/taod9UZR3B5UxoFPevoztC4IgCNeGCP8c5kx3gFvVLs+aEvgx5e1Tu91kiwZ3FZmRaJKvTxAEQbg2RDnmKO7gJPfTTzRrsCLbyO1lJ3wRtI6EkW7TYl2ujO0LgiAI144I/xylcSjI5XqzlMinWLQIRCaxr8mHoPq5NseEPPul8/pnG+qhPzbh5H78dQ3N6O3vx8joGPe4r61v4mVgcAjBYBDdvX3qs3Hu4T/udKGjuwfjEy6cr6lT+zejurYRXT29iKjPZ449OjbB29E+ZNTQezpOMBTibS4H9cqn6wiHI9Nrpoip47V3dGFsfGJ6jSAIgvBuaL/y1a/9zfRrYQ5xrMOPU10BbCuyYGO+mSMA3zk5AZ02Dh9flcBj/DcSl8uNw8dP4c1DR9Dc0oah4VEMDA1j194DaGnvQJ0S/uGxcSTZE/Dyq7vh9/uRk5OFyvM12L3vEIx6A771b9+B1+dHdX2DMgLqUVJUiASbFSFlLBw+dhIvv74LK5YsRpwmDnsOHMLRE6fVNkWwWS+ftLjvwFGcrapGsTqO2Xwh4hEKhvDv3/0R9AY9igryptcKgiAIl0M8/jnKCSX81JJ3VbZJeciT6HGG0TURRqYS/MK3VfGbbWLqfEPDI2hpaccjD+zA7/zGJ7B4YSliyjsvVML6iaeewCc/9iF4vV709g5gkkITlyE1xYHPfPppfOmZz7HYV9fVT3+ixDocQltbJ5qVETGqDIiGplZMTLjUMT1oUoZGxbnzvI4iB20dnaisrkV7ZzdHBMjDb21rR0VltTI0ahEMh/mYdB0+ZYCcr63naANFKigiIQiCIFxAhH8OQlP2GodDnMS3OteIUGQSz1e5YTVosH2BGQlXkdQXik7ynP9uZwQVPQGc7PTjYKsfb9R78Hrdpcsb9V4cbfdN70kCGoNPeepBJc5pqSlIS0vB2lXLkZ6aOr0FEI3GEIlEEFXbvpvwz2A2mZGRkcbDATNoNVpEYlFUK5Fuae1Ab08fjEYDWju6sP/wMZw4cxZ7DxzCmbOVHEE4qd5303BBOMoh/dd2v4lz589z1KCjq4ePSQZLW3sXXn5tt/qslqMT3b39/JkgCIIwhQj/HOS4EmF/eJL778crsae2vOXdfliokE++eXqry0OC30N1/Bu9+GWlGz847cS3j07gXw6P458OjuIb+8fxD/vHLlm+sX8Uv6r0TB9hChLzywn68OgYjp0qx6GjJ5CYkIDM9HRoNNf+a2QymZCRlqZEu1uJfAXMZrM6ng2Dg8N83Ecf3IEEm015/62IKeNix7at2LhhNSwWM7qUkTCgtltUUsLnrq1r4GNSJKCnrx/Zmel45P4dSEl1cG6BIAiCcAER/jmIM6hEV/1clmlkL/ZQmzIEIkCpQ8/GwOUIRWJoGg7h5WoPvq/E/runnPjpWTdqB4IwqF2SzFqsyDLiIyus+NSahEuWT6xOwGOLLxpXj4tjYTYYDHA6XZyw19LWCafbjXAojOHhUbS0d8JmsyLFkQyr1QJfIMBJdy63R+1rgEZ7oYwwhfkn1DEuHrvX63XIy81GmiMFg0MjKCtdoI6jPlfnjlOLRqOd/qmBVi1UlVgTN/XrGqBzRSLqnEEsWliCnKxMXq8sFY5WxNF2vH0cGwOCIAjCBSS5bw7yDeWFj/ui+NO7k5CoBPs/jo9zuP9zG+3IuUw2P7XupTD+i+fd2NXoQ/tYmI2GB8vicfcCC7YWmrEu14ytRWbsKLZgfZ4Za3NNlyzFKRda/pJkk+hSFn9NXROPsQ+NjCAWjSljQI/t27YgQYk0jc1nZabBaDSisakVXb29aG3vwJKFZUhMtGH/oWMswtUNjRgbH1de+2Y4kpN4iKC7bwBBJdx3bdmIfGUAJCfZ4fH4kKoMiaGRUXT39MPj9XKyHhkNg8rYoBkCer0BSxeVol95/PYEGwzqfVlpMVrVNVKCYUFeLqpq6uDxeTE4OIJVy5ciNSV56sYEQRAExE14/FceoBVuKqNKxH/zF/2cvf/8b2ahZSSCzz/XzzX5//6RFFj0lwZpup1h9vIpKjDmjWFxhgHrcszYVGBGkUP3vhv40DS73v4Bns4Xi0WRnZWFeIuJs/TzcrKV5x/i8XPyto0mozIQGuB0uZW3b8TyJYt4mODQsZOIN5t5+l5mRhqWqfUGvZ6Fv29gEG63FwvLitnQoGTCsXEn7IkJStSHMD5Br218roEh+mxcbe9BeloqFiqhpyEAvy/AeQJLlaHRPzSsPnejrGQB6huaeYogXcuyJWWwmC1TNyUIgiCI8M81Xqx2Kw/ficeXxOOZrUn42z2jONzuxxc2JuCjKxKmt4ISvEl0KM/+xRoP1+5Piddgc4Hy5sl7d+hhNsgojiAIgvBORB3mGDX9QRZ1vfL4e10Rns+vV177pouS+uhzquD3i3NuHG3zY4ny8v9wazKeWm7jEL+IviAIgvBuiELMIYY9UVT2hxCOTuI31iTgQLMPgXAMS9L1yL1obH9EbferShdOdfmxKN2I31mfyIl7UrtfEARBeC9EKeYQh1q98AVjyErUcUb66/UeaJW3/9EVtuktpnIAvnfGyVX9lmSY8MVNiSia7t4nCIIgCO+FCP8cITYJ1A6GeB7+Q6XxONYZQO9EBKuyjVy9j/CGoni1zoODLT4kW7R4cln8Da/iJwiCINxZiPDPEfpdYdQp4Ve6jyeWWfFKrYfn8j+62AqDLo7D/+d6gnjhvIdF/wsb7ViVJR36BEEQhGtDhH+OcLQ9AE8wxl33agdCaBgKoSRFh4151JIXnMH/zUPjyhiYxONLrFiXZ2KDQBAEQRCuBRH+OQBl6Z/uDiCgvPoHyyx4ucYDfyiGj69KRLyBWvLGuBKfJziJDXlmjggYRfQFQRCE94EI/xygfTSMAVcEuYl6pCfolLcfhN2iwV2FZmUUAP9zzyjKlWFQmqbHl+5OekcRH0EQBEG4WkRBbjGUzLez0ctT+R4ojcfOOg88ytv/2AobTErgf1LuxMmOACyGOHxhI0UA5CsTBEEQ3j+iIreY7vEwzvUG2MNPMMWhVXn/SRYtHltsRVVfgBvumHRx+IdHUrFCkvkEQRCE60SE/xZCjXcOtfrZ23+4LB7PVnkw5o/iD7YkwRmI4g9fHuaa/b+9PpEr8gmCIAjC9SLCfwupGQjiULufE/WaRkPoc0WwON2ArAQ9vnlwjFvRbi0w4elVFwr4CIIgCML1IMJ/i+h2Rniu/qg3gpJUA+r6Q9x7/8llNnzn5BjOq/d3FZnwvx5Ond5DEARBEK4fEf5bAIX49zV6Ud4TQF6SDp1jEXhCk/j0Ght2NXhY9Jcoz/9vHxLRFwRBEGaX27otL/V8n3C6UNfQhPHxCV6n0Wq5h3vpgkIYjHOvhr0zEMOBZi9+VeXhnvH08IfcEazPM6NxKAhvGFieacQ/PJJyS+fqUw996q8/ODjMzzkx0QqjwYjRsXFEIlHexpFsR5I9EUMjozCbzOp1Alwer9rPhURbArp7eqDn/vsx3j8rMwM69f1QP/6h4VGMqGPpdFoYdDokJdmRrJa4uKl7DgaDfFxrfDwSE2zQaC61UWPq+gYGhmAym3i/ayUcjiCqrkNv0EOrrkkQBGG+oP3KV7/2N9OvbztIkFrbOvHsy6+hs7sHoVAEY+NO2KzxyMxMg0GJzlyCRH9nvQe/qPTAHZhk4XepdTajBp3jESX0GmwrsuAv702G+RbP1Xcp0T98/BTePHQEzS1tLNQDQ8PYtfcAWto7UFffhGEl3CT2L7+6G36/Hzk5Wag8X4Pd+w7BqDfgW//2HXh9flTXN+B8TT1KigqRYLPC4/Xh9d378evXd8HpdqN/cAgWixlpaancnIgYHB7Bi6+8wQKfm52txPnS5xGNRnGq4hwbKOmpKW8ZDFdL38AA34fJaES8xTK9VhAE4c7nthf+YeUVknA8sGMbPvrkB7Bx3WoU5ucqjzGEs1XVSohq0dzaDoPy7DQaLc4pYTpfU4cmtS4pMRE+nw8Hj55AXUMzhoZG4HDY0dPXj91vHkarEoa2ji74AwEWppbWDpwqP4u29i46uRIx2zsE6e1Qjf0eZwTHO4J4odqN3Y0eBJRXT2V4g+ozEv8o4rjZDo3vf3p1Aiy3eK4+5Rp09/bh5KkK3Lf9Luy4awt77hMTTpjNZnzw4QewbOlC1Dc2w2w0KREdVN5/EgrUc+9Xr3v6BpRYZ6Gjqxtf+v3PY+umdTisnrHRaECxEv9gKKQ+60JGWho+86mPYc3K5TCZTGjv6GZBdrk9iETCqFHGBXn+YeWZk7D7lBFR09CojJARZWgE+FpSkpOhUwZTdW0DGwtOl0d582E2VkbHJtiAial7alLvO7t7Ma4MQzIuGppbcfxUuTISrTAZDPw9t6trilP/4tV3/fYIgyAIwp3CbSH81LzmaIcfFT0BFtKsBB2vnxF+8tzylLeZqxaCxLS2vhGnKyrZMyThSLZPCfrpM+eUUOiUp+lhT/HkmbNoVKJAXl9ldS2LSX//IH78y+eRnpYCt9qOogoUk6fPaWhhdHwCI6Nj6vNU2JQHSzQMhfG7Lw7iB6cn8LOzrreWX5xz4+VaD462+dE6EkIgGsdFe9R/IJshzabDAoce63LN7Pl3jCvRGg7d1KVFXdewN/pWz3/ysnuVeDc0t2DT+jXIzspAZnoaxpSQjo6PK8MqTz3XmBLTVuWlpyixH0KK453CT0Mw27dthjXeyseifZYvXcTCT0ZDR2cXh9nHJibg8XrRqQwFEuDWjk4l9OpZqM+d6nn39g/wzzH13F96dRcm1fWR4fTmoaNsgFEE4dWde9g4oMgDDR/UqO+fDMJaZSgQO/fsR486TndPHwKBIHzKmOvs6uHrpt+L6roGNDW3YUIZCvR7ZFaGiCAIwp3InB7jpyS4V+rcONIWQNtomAXzqeVWfG7j1JguCVSt8gp/+qsXlYcWhywlUKkOB9auWo6Wtg509fTi/u3bkJbqYIF46bXd7NE9+tC9LBLhUBjf/H//iccevA/r1qzEz599CZFoRBkROUpI9uLP//h32bPcufcgdKTSap9HHtiujAEvh5nXq31WLF3Mx/qXI+N4rsrN13W7QUHy/CQ9fvrJTH5PxhKF5t/Yux+f+tiTyM/N4XXHTpzBsdPlyMnKVOIZ4CjAxnVrOPxfsqAA9yiRrzh3XhlT57BJrX/u5VfxP//HnyIxIQH/+f0fc4SEjkce/cuv7eLoy+oVy5Ca4sCismL2sjs7u1m0k5OS2PhYsqRMefVJKFfHpf1pSOcTH3kCaep7/tf/+j4Wl5XwEAQZbh/98AcRjZChF0Jv7wDa1LFo6GHJolK0q9d0rj4l/n5/EJmZ6RzRWbViKV8zCX1ioo1/n+j4hfn5/DslCIJwpzFn45nk2T9f7cFPK9zsBd9fasHnNiViS+E7x2MNeh2HmrMy0pWIJMOivHYSK/Imd+07gOdeel15kV3wKq+Swrh6tT0ljFHyn9frZ2GipDP6w+/1BfiYZrWdxWyB0WRU22vZI52cjHESm9ls4nAxDScoe4IpTtGRXXBV0HZ6bRwcVi2WZxr43j66woZPrlbCuCbhpi+fVMt9JRc9V3WBFHo3GAzsaY+rpaWtk8fjyVgaHqYoSydHO1IcybBaLexBU8IcibrJZIBG3d8MoWCQIyWUezEDhf1XLluKp5VY33fPVvbaz1ZWc0JhRBkZM5ChpuWw+yRHeHQa7TvC8LReq7x8OmNs2mipa2xi759yAAg+zrTxRtvTQkTUNYfU9xgIBth4WL54EWzxFMWZs/awIAjCdTFnPf6Xq934YYULKfFa/NbaBCxKVx6ZMY4r2c0w4/HvevMgtmxYi81qmWF8wqm8u0ElOE6craphgXK5XNArMXvyA4+wB0sC/M/f/i/suOcubN24Fj/8+bPQ6/TIzEjDC6+8ga9++Q/Y46dkNbPZyNnsD957N9weD86cq8LG9WuVUCxUx7lwTW+nzxnGkXY/qvuDvIz7p4RIr1Piqu7FG5rkOvy/tS4R63KNyLMbeAjgVkKiSNn7ew8cweDQiBL4eCXmygDS6pSwu9VzXoc25S3TmDqF8uk5l589j2SHnT3qlUuXIDXVoZ7td/Dog/chEoty2P7jTz2OkgVFbBzs3LsfgUBIedeP89DM6fJzOF9bzxEbOl6W8sgbW1rZ+CBjLcluZ8OhuaUdT6t9UpKS3vL4af2BI8exYd0azuWga6cwf0ZaKhqaWpSnv1SdvwdrVy9Hd28/fMrYK15QgIrK81hQWMB5AC71nZLhSN/94oWlbDwKgiDcicxJ4afx8v+9b0QJDfDH25J5etvlmBF+EmzyGCkkTJ47hW/TUlN4HJnWk1hRAhmJ/6FjJ6FR3p9Oef2UEEjjvLTObk/kpLBHHtihxG4Y//bdH2Hd6hUs6qlqv/VrVqGqppaFQ6vTobgwHzu2beHzXC11g2HOAaBcBbIVrAYN0m1ajPqiCEWAJRkGPLLQik0FJo4I3ErIMKKx9frGFvWco8jOylICbOIsfZouGQ6F+FlQ2J+iIjV1Deytk4GwfMkiNh7oucYrASWvmwR1mVpPMy1ojJ8S+egcC8uK2VOnXA1KBqSIwuRkHOcODI+M8HdHz7soL5en3lFuRVnJAhZmMugcSXakpDg4V8NIRkK8maf3dXT1ciSI8jso/4OMjfTUVI7cUGSCIkM0bBBviWejjowNMuxoWmFpUQFPExQEQbgTmXPCH4xM4u+U6Ff2hfC1+xxYn2tikbwcJC4k7DR+61YCQVAYmJLyKGxLWd2hcEgZAzr2IC3qjzklcnk8Pk7woyQuEvb2ji4OLycozzFDeX0nzlTghZdfx8c/8gTsiQk8jEDiT0l9lFFOtQIyUlLgcChDQx3nWqAEv5+fc+Ngq4/n6SebdViebUC/M4rGIWUQaOLwh1uTuCXvrc7uFwRBEO485pzwv9nix78eHsNHVybgqeXxPLf9ZkLe6OFjp7DnwGH8xR/9Hmd9zzatoyH82zEn990nmybJrMUnVidwLsPuBg/CMeC31yXi0cXx0ntfEARBmFXm1HQ+dyiG/zg2wdPaPqOEL8GkfVdv/0ZBSXuUZb5y2WL28m/EfO5kixaR6CRqB0OcQ+YMxmDUx+FpZexQiL9pOIyzPQEu4rM0Q7ryCYIgCLPHnHInd9V70Ka84adW2JAcr7npok+Q0FPGP81Dv9Yw/rWwucCMDXkmeJV77zBrcKx9qk7B40tteHKZle/9h2cmcLLTP72HIAiCIFw/c0b4p2rY+7hT3dJ0I3R3+BzqJOX1318aj9IUA2jymkF5+r+udWPQHcGHl9vY+/cEJ/Hfp5043x+c2kkQBEEQrpM5I/zHlcfb546yx5uoPOD5wKJUPZZmGuHyx5Bh02LYE8OuRi+oN8+Hl1vxG2sT0DQUwvdPObm6niAIgiBcL3NCYSOxSRxq88ERr0WxQ3/Lp7LdLIx6DVZlG9n7p658NH//QIsXbWNhmPRxbxXWqVIe/4s1XniCFwrbCIIgCML7YU4If+1ACH3OKE9hs88Tb38GSt7LTtRxiL8wSc8FfajgTzQGzuj/jXWJKEvT40jrVCtfQRAEQbge5oTKnukOwK+UjnrSz7fpazSDYUWWEXTbNlMcV/E71RVAu/L6iTy7Hk+vTOTtdjZ4caBVkv0EQRCE988tV1lK6qsdCKI0Rc/T3G5FJv+tZkuBiZvkVPYFkZOgQ68zggplDFE5ecpxXJdr4Hn+w54IfnHOyYaSIAiCILwfbrnwn+sNYMgdxdpcM9fin49QO9zFGQb4w5MoSjEiTgn+m60+akvDn1v0Wm5O9OgiK9pGI9hZ70HvxFREQBAEQRCuhVsq/NRT/bzycsnLL001wDxPS9RSMuPidBMPc/S7wihN06N9NMyFfAh6PokmDT660oYNuUacVh7/C9UeuINThoEgCIIgXC23VGmHPVEeyy5NMyB5niX1vZ2N+VNJfjUDIRQmGRBVVtHPzjqnP50K+dN4/2c22LEi04i9TT78uHxCif9Utz9BEARBuBpuqdrWDQYxosSfwtzzZe7+u0HefmaCjgU/yaLh3vFNI5HpT6cg8c9N1OLBsngkmuI42e8n5U4Rf0EQBOGquWVqG52EErYQ/yxK0sN8k5vxzEXKUg3QK8HvcUawOE2PfmeYpzpeDA0LrM0z4ZOrE/n9a/Ve/OysC56QiL8gCILw3twytR33RdExFkaOXccFbOZjNv/bWZxugFE7yQV77i+J56z+H1dcCPcT1EaYogP3FFvwxU127u736xo3/uXwBJqHpbqfIAiCcGVuWVveE51+fOfkBLYWWrg2vd0kHj/xey8OoaY/gG99MBV/8sowchL1+PmnMqc/vZRAOMaNfX5S4eJOf1aDBo8tjsdHVyQg1aqd3ur9EQgEcbL8LH7x3EvcqnjzhrXIysjAnjcPYdzpxKQyOR657x5s37YZz770GkqKCnCPel1xrhonzlRg07rV+Oa3/4vbGnvcPmxYtwpf/OynYTGb4fZ4sXPvfnWOED7+1Aeh1+unz3p90HF/8NNfIj0tFR/+4KPQ6a7vGQiCINyJ3DK17RiL8Ng0zV+3GcTdn2FpxlTJ4m5nFKtzjOh3R1DZe/l5+ybl+a/JMeF3NtixpcDC0wF/ec6N3/hFH757ysnVAMPRSS6JTDMoaLkaJicn0T8wiMrztfjERz6Er3/lS0hPTcXo6DiWL12E//mXX8Zf/dkfweXxoL2zGzF1YNpnaolxq2FMxiE/Jxvf/Lu/xn/96/9BT28/zlRUvXX8mWUGeh2NRhEORxCJRNQxY3xcek3r6DNaZt7T57QPvZ9Z4uMt+MJvfQplxUX48S+fg9/nV/c8+dYxaX9BEIT5zi3px+9TniplpXuU8N9bEs9JbcIUvhBwvCPAQx/3FsdzD4OJQIw7+V0OnTISshJ12FxoQoZNx4aCKziJc71BvNHg5aJAVAmweyKijhNFvEGjDAEgGJm8ZKGkQuoQSJCodiuhrm9qxl2bN6AgLxclCwrhdnswOj6Owvw8GE0GVNc2ICHBisHBYeXZJ6MgP5cNhp6+AW5rXNfQxBEBanPc1tmJYDDEhgNFEFra2pUYR7FsyUJotVq1Tz9++cIr+NWLr6C6rhE2qxWt7R346bMvYeeeN9mbP11xDm8eOopfv74bXp8PyXY7/u9/fA+Hjp3EsdPlMBkN+K/v/4TPPz4+gWJ1zVU1dbzu+KlyDA6PoqggD4ZZijAIgiDcjtwSj7/fFcGgWgqTDVytT7gAGUE67SQOtPiwnEr5KjHudylPmLIgrwCN+39giRX//uE0/M39yViXawLlS9YPhnCkzY8fnnHi67tH8OSPevHof/dcsnzge708rHAxMeW5x6hhwNsIhcOYcLnR3NIOkxL/1BQHNJrr+zUib7yruxd6vQ6fVx47GQ219U04X1uP1cuX4Gt//sd44tEH8emPPYXf//xv4RMfeQJtHV2oqmuAVp37L/7od/Hnf/BFrF+9El//iy/h008/idTUFNQow4QiDTvu3orHH3sAPp9Xif/I9FkFQRDmJ7dE+LvGIxj2xlDoIOG/ZaMNc5LSVD3ykvQ8dY888bVKwAeUF1/efXU1+uMNWuX9W/A3DzrwL0+k40+2JeGxRVbsKDbzsECBOjbVA7h00WFRqmH6CFMJhFqtMkB0WoRDYRZ7j9enjI8o2tq78J0f/FR5579Geloa8nKyoVOCHaXQu1rCyosnMY676GuNxaZC+O825k4RfwrD63R6JNisyqAwIhINc+JifHw8jMqTJ+qamrFr7yGcOFWBYDCohNzHEQeD+jxOnXNMefl7DhzGvgNH0ae8/ogyXMioSE6yw2KOh15nQCgoFQ8FQZjf3PRQP40zH2338xz+HcUWlCjBkRH+S6Fa/VTIh2Y8LEk3Yn+Ll4dH7iu5fLj/clDYPsmsxYIUAzYVmLFtgYXn/z+5zMbJlBcvT6qFtrkYEszunl64vV44nS5U1dapn27YE214/NEHYDAocVbbFOTlwKuMgiHlSRuVYFcrL9zhSEZaqgNnzlairLQEw6OjOHm6Als2rkV2ZgaH+pta2jA6No6M9FR4/X6MKtEeGRlRvwtxGBwaZgMgoowBEniD0Qivx4u9+w/xcEJaWgoG1DbLlyxC5fkapCQnoW9gAJ3dPWhsace2LRv4GGkpDs4DoPOQYULh/8WLStSxbdN3KQiCMP+46cJPTXkOtPqUNxvDPUqMaFxauBRfaBKH23ww6+Lw6OJ4nqtPY/4PKOGm0P+Nhjx+k8nEoffTFZVo6+xCTmYmizSNxy8oLECGEt8RJehJdjuP+be0d6C8skp5+1rce88WmJRYV9c2olMZD7X1jTy2f9em9eqYeiXCUfT1D6C2oQmt7Z3o6OxmMdbpdKirb1JevA1rVi1TxkMq2tW5KexPn1EkYGh4FF3qmIm2BGzasIYNjh//8gWOJixdtBBtbZ1K6Cc48XDlssVwKKOAzk/vi9R1LyxewMcSBEGYr9z06Xw05kzT+Kg63W+vtyM3Uf4Ivx0qY/zMCwNIVUbRf344A1/fPcyFfL56bzI36xEuUN/YghdeeR1ffubzMFsujVoIgiAI7+SmD7APeqIYUgt1pEuR8f3LUpisR1aiHq0jYZ6Stz7PjEAEON4p7XjfDs1AWL18KQ8zCIIgCO/NTVVeSuLqc4bhj8SQqbxZmocuXJ4M21Q1wzbl/W/KNyPeEIem4RBcUpf/EpYsKsUjD9573TMLBEEQ5gs39a+lOzTJHj+1mHXEaySp7woUJRuUpQRU9QZ55sPiDD2GPRHUDQSntxAEQRCEa+emCv+wZyp0nZGgg0Pm71+RVdlToetzvQFoNXFYlmGCL6ze94nwC4IgCO+fmyr8NLY/4I5ymD/ZIkl9V6IkVQ+rUYNeVxTB8CSKHXqe11+lDIExn4T7BUEQhPfHTRX+EU8ME74oMqx6JEhTnitiNWpRmmbgWvPt42FkJpKxpMGIN4bGYfH6BUEQhPfHTVNf8lZHvFHodXFwWDVcmU64MuTlU8Gjqr4gD41Q9T1fSAn/kLTfFQRBEN4fN034x5Sn3+8OI92qRapM47sqFiqPnyrPtY2GYFQG0+psE4LRSfQ4I9NbCIIgCMK1cdMUeNwfw5A7yn3iHfEyvn81UG19qq7UNBzmBL8sqn0Qr0XXeJiL/AiCIAjCtXLThH/UE+FmM+k2nRTuuUqocyFNfRzzReAOxDhSQv0NqLvhSSnmIwiCILwPbooCk9c66oty/31KUDNK4Z6rZnGGEdHJODQOU7hfw+F/KuJT3h1gA0AQBEEQroWbosDeUAzD3ihPT5Mw/7WRb6eWt5Oo7gtAp43jjn1ZNp0S/TCP/QuCIAjCtXBThH/CH+WKfRS6TpHCPdfE0kwTCz8l9NFEiDSrHveXxrPX3zoq4/yCIAjCtXFThN/pn+TEvuR4rVokzH8trMqiUD9QPzQl8kYdkJ+shzswicreIHonRPwFQRCEq+emqLArGMWQNwKHWSuleq8Rkz6OIyX+cIzzJPSaOOTZ9ci167iYj2T3C3MF6pQ4OjaBuoYmtTSjp68fwUBwagmFeGrqDLRtb98Axp0uRNVrQRBuHjdc+KkAzYQ/Bk8gBrtZA4sk9l0TFN7PTNAirNz+xsEQd+yjXgf3lVow4Imgql+q+AlzA5fHg0PHjuNXL76CXfsO4FxVDUbGx1Hd0Ii29i4W+xnC4TBqG5vQ29uPaDQ6vVYQhJvBDVfhQCTGXeXMBg1P5ROuDRL6dKuOC/fUDE6JvNUArM81I8OqRctIGN1O8fqFWwt5806XC/0DQ9i+bQv+4Au/jQfvu4cF/ujx0zhdcQ7dff04W1WN8nNVaO/sQaojGUn2RDYKTp45q9af50hBJBLB6Ni42qeStx0eGZ0+iyAIs4H2K1/92t9Mv74hjHqjONYR4Mz+LYVm5Nj1058IV0ccxn1RnO4KIM2mxbYiizIG4jgSQKH+il4/7CYdlmZOdfMThPdDJBiDszcEZ08IE10hDDf7MdYWxFC9H73nvBio9mGg5sIyWOuDi0pJLzBPH0EdIxLFgBJ+CvG7lfdPxkAgEEJNfQMbsHFxGuzaewBDQ6P8fs/+w9BptSz6ZBAEg0GcOF2BpYvKcOTEKbWuhocDxpQRUFq8AFqtRAsFYTa44cJPc80Ptfph1mtwd5GZx6uFa0D9gTRq4/BitQehCPDkchuLvk4zZRAc6wzAZtKgMFmPRJM8W+HqiIYnlXCH0K8EvfuUB21H3Kh/YxzNe51oedOJxp0TaFY/G9S6ulfG0bhrAk17Llr2TsA9GMGKj6bw8cgYNRoNSEy0YXzCiabmNgwMDSExIQE+nw9ZGenISE9TnvwY7tqyEWtWLUN1XSPSUhzs3S8sXYBHHtiBE2cqkKm23bXvEJYtLkNysh0V56qxbvUKmE0mPpcgCNfHDTehPcrTp3a8VIFO5vBfOyTy6Qk6pKklHJvEsHtqPNSgi8PCdAOWqKVmIIi6AZnTL7w3kUAMPRVenPneEA5/qx/7/74He77ehcP/1Is+5dkH1e+XzhSH1DITslZYUPpgEjZ8Lg1bnsm4ZNn8exlY9fSU6M9AHr4jOQlPPPYQPvDw/Yip39fegYHpT6fQKg+fvPx3QL/ocRpoNFpEozF4vT6EQmEk2BKwVom+TidGrSDMFnETHv+FVNsbwJFWH/7xwBgeXBiPZzbb1f/Y9H+4cC3QMMmfvTqEXmcUf3pPMu4qmgqvhiIxvF7vxX+ddOLxpVZ8Zl0iN/MRhLcTVoI/VOdH60EnOk+6OXRvcehgyzAgKd+IlGITkgqMsCTpoDdrYUzUQKvTQB+vgTlRR5p8RUj0ydM/XX4OI8qDp3F6SuJftLAYjU2tnMBXWJDHGf9bN65HUWEe/uN7P8GSshI0NrfB4/WirLSIx/g/+5sfxxu73sSk+rewpISjCCuWLYFWI6F+QZgNbmioPxSdRHV/EGd7g9iYb8HyLBmHfj+Q51Q9GELneJhb9S7JmHqO1LgnEotD03CQW/Xa1R/sgmQ9NDSAKgiKmPp/cKI7hKpfjeLcz0fQsHOc15U+YMeaT6cpj96OhQ/ZsWB7IlJKzEjMMSpjQA+zXQdTglYZARoej78aYpMx+Px+9tTt9gQsLC1GaXERbFYrktT79NQUDvdnZWTAao3n0H12VgbaOrporAD5uTlYvnQRSooK1Xbp7PlbLGbEW+KRkpIsv9eCMEvcUI+fpvE9W+XCgRY/PrM+EfeXWqY/Ea4FMqBerfXg349PYEeJBf/jXsf0J+T1T+L1Bg9+eMaFVdlGfGq1DcUpYmAJlLA3yWPzta+Moe+sBzol4oV3JaDk3kSkLTLDnnvrf09CoRD++8e/QJYS+ofv3w6jSX53BeFGc0NjZxSiHnBFYDPFcTtZ4f2hVY4O1egnhj1RntM/A431r8wycoW/k51BHOsIIqiMAWEeo77+wVov9v1tNw7/cy/aj7iQt9GGh/4uD1t/P5O9/bkg+oROp8OObVuxetUy6PSSAyQIN4MbLPyTGHRHkWCkHvwyPvd+oZA+efFkPNH0SFouJjtBjy2FFm53TF37zvcHOUogzD+8oxHUKA9/59e6UfXcKCZjwD1/loVtX85C8Y5EJOYaprecG2g0Gs7oz8vJ5sQ/QRBuPDdUjX1h5fF7lMdPXflkGt91oVPfVKoSfhL0kbcJP3n96/NMXM2vzxXBa3UetI6EubmPMH+oe3UcL/5uKw79f73or/Jh6RPJ+MA/F2Dl0ymcvCcIgkDcMOEnzaEyve7gJJfqNeslMed6IOHPTdJzBb++6Sl9F0PTJalOwsZ8M2oHQ3hFiT8lA74f8acMbZfbg/rGFoyNT/A6qqdOVdnaO7u49joRCobUNs28/maWXaXSr5T9ffT4KRw9cRpHjp3GhNM1/enNhRIv/X4/Z6XTc7sV1L8+jp9/qhlv/n0POo65OSnv8W8XYtufZCF3nRVGmxjdgiBc4IYJf1B5+4PKMzWovznk7UtG7vVBzXkWOPQIhCbROXb5OfvZiXo8ujAeq7JNONHpx7NVbpT3UNXEaxNl0q/BwSHs2XcQXd29b60kY4AMgXA0wqtcSux2v3kYtQ1NiISn1t0MaKrY3jcPYd/Bo2hu7cC+Q4dx/FT5LWn2QiVpm1rbuchM+CY9A/9EBA07J3DuZ8P4+Sebsed/dqPtkBMRfxSP/EMenvh2Ecrut8OWKVUyBUF4Jzcsq3/MF8WvKt042Orj+eU0j194/5DnXtkXxF/vGuHs/b+6P+Wyc/Ypy59q+u+s9+Kc2j7JrMGWAjPW5pjgiNcizarDe1U+JS+2ta0db+zej7vv2oSVy5ewR9/R1Q2vzw9Hsh09vQPo6x/AqYpzuOeuLcjPycb4xARCSgiTk5K4ItuxU2e4oIvNGo8VS5dwyVUyHqpr6hBThgRN6XI4ktDd1cv3l5xk5ylfzW1tcLu90Bv0XBFOq9FCp9NgUVkp13Ynsf2P7/4YRYX5ePiB7Th2shx7DxzGZ3/jabS2dyLeYoFer8OCokK0d3RyxzgaS6bqcXQNg4PDPEc8MyONp4o1NLeyMUE1JqiADM0Xp4IxdN8jY2Nobungc65ZuRzhSAgnTp/lazXq9cjJzcL+g8fQq57FJz/yIY5GUE16nTpGdlYm30Nf/yCXsE1Rz6S0qABm81Qdhpj6rrzDEYSDlxpmdM9RZThTMZ2w+t+Txu2jgRhC6v+p3nIvBht88NE6tX/AGYUlSV3rJ1Kx7EMOJGbroZdhNUEQrsANm8c/7ovhSJv6A6X+gN1TbEFWgmTsXg8cMVEm2s5GrxJJYFO+mUv1vh1KBKQIS55dxyV8u5R3eFJ5/22jyjMdCaNV/azqDXIv/5mF3nc7IyhLnUr8Io9/XHn2zcqTLcjP5bnXYSWMVEedQvvjTidalGEQDIYwMDSMBQV5LOLUnY0aqpyvqYfBYMSPfvYrFBTkwmwyIzszg0PhtXWNOHD0BJLtdj5m/8AgquuaeFpXd28fGxinKioxOjqOvoEBNjb0Oh3Onq9FQoINacowIHOn/GwVkpT4LigsQFNLG3qV2K5Yshj9/UPKOPGhorIaJqOBRdof8KNRiXs0FoU9MZGbybR3dvM9+gMBHDl2Ul1LGA1NLRgcHoFBGQ3HTpUjU933IXWtHo9XCfsgxibGEQ5F8IvnXuZnUl3XoO7TwMdzudzIyc6cbkfbxwbD2IRTGUj9fG1kXVuU4NN8dNqHGK7343uP1ePEvw/izPeHLlkqfjyMyl+OoPqFMS6fSyVyqazuUINfGQMxWFMMyF0fj61/nIVtf5iForsTeP691nDDgniCINwh3LhQf3QSg54o4tUfIvI0heuHE/ysWvbqR5T3925Qst8CJQxPLo3H5zYk4t7ieESUsVDbH8RPyp343ulLl++fcWJfk2967ysTUcI8MjqGVCXA92zdiJzMTGi0WhbJ9JQUJFitGFLGQDAURLLy9u/ZsglbNqxlD5xEnQyFHOUJP3Dv3Vi+ZBECynhYUJiHTetXw6gEcXh0FIlK4FeuWIKignzkZmVxnfZ4ZTxMKCGNTg8zEOdr6/Hya7uUgdKG7ds2swefn5/DhgJt2z84CJ3y8Heoz0pLitR6PTLSUpCelqbW69hQ8VMEw5GEdatWqOvKQkFeDjap62XPXRkiVdX1XDkuOSkR5eeq1XOMITMzHVs3rUOCzcoNZFKSk+GgCIDRxH3n6ViLy0o5F8Lj8XE0wZ6YgCy1n1EZRDNoTHGwXKZpFRletMRp49SzVYvaRGvU8Os49d3ST2OCBqZEPdy9IXiGwwgrQ1vtMXUAQRCEK3DDhN8fmsSQl4RfixQJPc4KRr0Gi1ON8CkV71Ue+ntB26/JMeETq234wiY7ntmShD/alow/vst+yfJH25LwsZW26b2uDPUFpNA7/SQvlrz4qBK2k6crlFfcz6FtMgQICpm/fYoWh7GjsSlh47yPSRZZGp6ndaRdtJ7/XfSa4Q0uQJXf7EqQt2xcp4yDlezlt7Z1wGQ28Zxw6gYXUecKBsOIhMI8zHBeeek0RGEyUYXDmV9/dQYNnU+JKl/T1Hmj6jnTvZmMRpQpw+GBHXdxnfm3rkstF18S7UnvOddAvaD7X7q4FEuXLERYnZ+iFGQ0zSQBOorM+ML+xfiLplWXLF+qXoFnji7D7x1ais/uXIinf1iMJ/9fAe77qxxs+GwaslbHI+iNoXH3OA78n14899kWHPt2P7pPu+EekhbNgiBcmRsm/CRONN/caoiDVXkrwvVDUdzcJB2c/qnx/qsl3abDiiwjtiqh+dBSK55akXDJ8uFlNmwuuNBedYbRiXG8sXc/fvizZ7F730ElWuM89k3ePYnn67v3o7Onl4V7wuXmRMDunj4O29MY+tuhYi3ZyuslT/r5X7/OQwdm5SU3trRh/+GjPI5OUYOrpWRBIXbctZnH3mncnEL8NF4/MDjMTV7IE7fZLNh74BCalUEQi0UxOjqK1vYOtc0IAtOzE94NS7wFSxYv5JKy1Go2Xr1/uyGjU963xWKBU92/x+vh4YVjJ87g3PlaGE0G+P0B3retswvjTtclz4UMCJ1JA0O89pIlPlnP9fPteUaklVlQsCUBJfcnYc2nU7HjL3Pwof9XiEf/MQ/b/jgLSx5PhiVFj8pfjeD5z7fi+P8bQE+5h5vxCIIgXI4bktxHoej9LT7838MT+NCyePY2heuHZuZV9QXwl2+MoDTFgG88lgKL8upnG/JIPUo4aRzf5/OzYFvj4zlcT8lxCTYbhoZHWWgpfJ+fm8N12p1ON4fiKbudarBTUtuSxWUcwp85LrVobVEiTL905LFTWH9waJiT/RLVce32RE4StMVb1e9RmI2B1BQHJxNSaD09LYU9bcrmt8abuYUrJe7Rsam9Kxkfer2ex+5pqMDpcqK9swd1jU2cgLhi2WIejw9HojzmTuf3+rxIcTh4eECrDJtUZTA0K+MgIy2VQ/d0fQZ1zER1bfFqHzJ6ipXR0dc3wCVm6f5oCCMjNZWvmYY66Jk5HMn8fCiXgIZIKCEwKzPjrecxG1ByX/cZN7fQ7T7jxVC9D2mLLNj0xTRkr7LCsUDm7wuCcCk3RPhdytt44byb55J/as2URynMDl0TYXz19WEO4//ZPclYmDa3KrHNFcgQoETDA4ePTSfs6bFty0YsKithw+FOg6b49SpPv+r5UYy1BeEZDqFgcwIX8cleY4UlWZJrBUGY4oZk9buV8B9u93Nm/7YiC/KTZD7xbBGKgLPze5QBUJBsQMl0Jr5wKSTuNMaemJiAwvx8LFlUityszDu2HrzepEFykQmFWxORXGhEyBtD8z4nOk+4EQ1O8udmuxbaGxAhEgTh9uKGCP+4P4a9zT4O3+4ojkeaVZL7ZhNq1EPT8PKUQUXFeoTLQyJP8/5THEkc0qfw+50OGwBK+HPWWlnwvSMRNO2ZwERXCNFQjPvrUw6BIAjzlxti/gcjMQy5IjAr7yJVmvPMKvRMy9L0cAWVRzcaglv9FISLoWiHLc2Azb+fibv/LAtLn3TA1RPC0X8dwNF/7sf5Z0cw2hqY3np2CQaDqKqtx+GjJ7k3vyAIc48bJPzgeebxhjgkyVS+WUUTB1gNWm58FAxPVfQThHegfk/iHToUb7fj7i9nYfMz6UhbaEbXGQ8OfrMPh/+pD2d+OIi2Q65ZnQJIsxsOHD6O13bvw9DwyPRaQRDmErOe3Ec6RK1hv/rGCO4rNeMrOxzTnwizBSX4/X8HxhCITOIPtyZhWebc6K0uzF1oet9wUwC9lR4073VisF5549FJWDP1SM43ISFLj8QcI88CMFi1MFo1nA9ADX7MSVouGvRe0NBeY1MLvveTXyAUCuNjH/oA1q5ZieaWdm7u5A8GsKAgn+s4UD0Dr9fLMy+ooNPps+emiiq5Pbh/xzZOztx/6Cj0egNMJgO2bdkAi9kyfSZBEK6HWRf+QDiGPU0+/OfxcZ4j/pn1idOfCLPFmC+Gn1Y4OYHyN9ck4ANLrNOfCMKVoQp/Y+0BjLQEMNToV8aAn1v4Uu1/k10LW7oeOqOG6wuQ2OtMccoI0NL4wfQRpqC39hwlyF/Oml4DrlR47HQ59uw/xD0aMtPTsWPbFpwsP8uGQG52JjLSU3kogsogU9lkmnlx3/a7MD7h5OJJO/cdxLbNG7g2xOnySty9dSNvT8mZRqMYuIIwG8x6qJ8awQ26IzzdLNks4/s3AqMOSLHq+DlfSyEfQdBbNEhfYsGiR5Ow4XfSsf3Ps/HQ/8rF/V/PwcqnHbBlGqDRxcE/HoG7L4S+c15UvzSK88+NXLJUvzCKnrPe6aNO4fX7MTAwhIK8XPbkR8fGuF0xVV4cHh7hug8k3tQYya+MBGr4REWhyPOg9WPjTrhcLkxMuLj3w9j4OPoHh5THb5oXiZmCcLOYdY9/VHkU/3FsHHWDITyzORFbiiQ8dyOo7Avgr3eNYkmGgYdTqB+/ILwfouFJTEYnuQwwCT5l/0dDQEyti4WpK2AMk2/PJVEevzXVgMzlU/9/U0fH9s5O/OrFV7nQEjUiIm/+3ru3Ii8nGxNOF/dUoOEAygPIy8liT77yfB2WL1vEzYzWr1mJnbv3Y1FZMbZuWs/DA9TIiZo2ffCRB5CTmcHnEgTh+ph14R9wR/F3+0bgCU7iK9uTsTBd5pnfCNrHwviXI+Pwqz/Svy/j/MIthiocUi+CIydO44MP389jAVSSWf3gTozdfX3capmaJbmUEeDzB7hkMnn+27duxJuHj6EgPw8nTlUokb8fWRlp2HPgMBsRLrXfZz79NFKSk6bPJgjC9TDrwt89EcGXXh2Cw6LB3z2UihTpzHdDoD4IPzvrxuF2H35rbQIeWyzj/MKtgzx+CuV7PB4usUyQZ08liymWT4l9VFrZarUiGolyP4dINMK9D6jGAkUEqGkStVB2JCfz+pHRUY4cUFOo1JSpdYIgXD+zLvwtIyF84flBrMgy4R8fTYH+KrKBhWvHqzz9X9d48MNyFx5fEo8vbrKrP5DyrAVBEIQrM6sDwzSnnKr2EZTYJ6J/44g3aFCaZuBaCQOuCCYCs2q/CYIgCHcosyz8NMYfYcFPtUlY7kaTpIyromQDhrxRdI6FptcKgiAIwrszq8IfnpzEkCcKoxJ+h1Tsu+EkW3QoU14/efw0i4IML0EQBEG4ErMq/JEoMMQeP5ASL/NubzTk8S9N13MGdetICOM+9QUIgiAIwhWYXeFXHueg8vgNWg1SxOO/KVhNWmVkafi59ymjSxAEQRCuxKwn9w25ozzGT2Ik3HgybTqsyDRjWHn7zcrrD0clyU8QBEF4d2Y51D+pPM8Il5R1yPz9m0KqVYvVOQaeK32+L8g5FoIgCILwbsya8FNFzwl/jBPM7GatTOW7iZDXvyBFj87xiFpmr8WqIAiCcOcxa8LPYX5vFDoK81M3L+GmkZmow+I0Iyf3kfCHJNwvCIIgvAuzJvzUP3vYE4FeM4lUSey7qVj0GhQrjz/BrMX5/iB6JsTrFwRBEC7PLHr8Uxn9U4l9Ivw3mwUOA1ZmGdE0HEZVf0i8fkEQBOGyzN4Yv1poDj+H+kX4bzqOeA3W5JjY+z/d5UevU6b2CYIgCO9k9jz+yTgMs8evQYpVivfcbHSaOCxM1WO58vobhsKo6Q8iSIUVBEEQBOEiZjHUH8OQNwJ9nPI+ZYz/lpCqDK61yuu3GjV4pc6Dip6AhPwFQRCES5g14adyvSPeGAzK2bebZCrfrUCrvs21uUasyzGicyyCI+0B7tsvCIIgCDNov/LVr/3N9Ov3Dc3h756I4PV6L4pTDXiwLH76E+FmY9TFIT1Bx4Jfrjz+QHiSO/hRG99rIRgKoaqmDj/82bM4cPg4xsYnMDo6hmdffA179h/CgSMnEAyGYE9IwKs798LpdCItxYHq+gbsO3AUk7EYvvnt/8Kp8nPYte8ghodHUFxUAL1eB6/Ph0PHTqKxqRV5OVmormvAIXW8jLRUWCyW6SuYugY695Da15FsV/vqMTI2jh///HkkJtpgtydCE/dOI9Pj9eDVXfv4evNzc6bXCoIgCMSsePw0lY8q9pHHKYl9t548ux5bCi3IsOmwt8mLX1a6MHINnj99nyS25RWVWFxWgvt3bEM4GkF7Vw+MRgMeuv8e3HfPVnT39KKzuwd9/YOYcLoQnYzB7fagf2BQ/fTC4/Hiqccfw6c++iTOnq9lgSei0RjGlIAPj4whpgwEt8uDgcEhBMOXthbW6/RYv2Ylli0pU+c18bpwKKzO2wdfIIh3iyuFIzG+fjJWBEEQhEuZFY+fpvJVdAdQ1RvCulwjVudM/ZEWbg3kBOcorz9VGWE9zgjOqO+mcTiEAXcUiWYNEkxa3ubdIOHvVKJeo4R6+12bsKisFIX5eXB7PCzmSxctRLLywM/XNMBqtWBwcBgpjmQU5Oey6Pf0DSA3OwuNzS34wMP3IyszXb1uRTgcxtLFC9mTb2lrRyQSxZJFpWw40D4h9fmvXnwVO/ft5+3NJiOOnShXBsIoRsfG8IvnX8a+g0fQr4yEDcogOKUMk9eUZ7//8FGMTziRYLXhX7/zfRw7fkoZGU1YVFoMg0GPH/38eezadwAul5sjADq9JJ8KgjB/mRWPP6aEgkRFS8V7pB3vnMCoj8P6PBO+uMnOPfsr+4L4UbkTz7wwiCd+0IsPfr/nreWJH/biO6cueMck/NFIhIVZp9dzeN5iNkGnmYrmzEQEdLo4JNhs0EyvfzfoczoGHe9KBIIBJCcl4qH7dsCgN6CxpQ1DSvQpmnDy9FmUFS/AJz7yuDIyktTvmgYP7NiGL37mU3jysUdwpvwcqmpqYdDp8amnn8KyJQvhDwTR2t4Fm82qtr0bo+NOdPX2TZ9NEARhfjIrwh+n/g3PlOuVrnxzBiqmtCjdiG88kop//mAaPrDYyn0UnIEYxnwXLeq76xy9tNqfVom1hsZu3sb52gZ8/R/+Gf/+3z9CdlYWRwLiNLOXzEnj+NZ4Mwt7lAwFZWTQcADNGqGoQnJSEswU9lefjyij4I09b2LvwcPweH1q8SIzIx0pKQ51DAuCwSAPR1Dk4uiJ08oIaMfo2Pj0mQRBEOYns+Txg8v10h/rFKt+eq0wFyBNNijPfFmGAX94lx0/+UQmDvxuLg4/k/fWcvD38vC/Hk6d3oM0VaM8easSWCPaO7rQ1tHJIfWO7h4sW1yGP/69z2LtqhUIKWGlsHl6Wgp7036fH109fbAnJcBgvPB74PJ4+Bg52Zn83qDTwZ6YgL6BAYxPuDDhckNv0MNsMvPn1GnwYsgI0Wp1LO7kxdOQgM/r5xD+otISPP7IAzCbTUrsrTzsQNcRDIb5PsjbX7F0Mf7gC7+Nv/qLP8GGtaunjyoIgjA/mZUx/pBS/p9UuLiIzMdW2mDWi9c/14iLi5tepnIALrfMQNtZzGZOwvvFC7/GoaMn2YumxadEdcnCEqSnpqC+sYWz+kuLC3mbZ19+lcPyjz/yILRK3F98dSeOnzqDV3fuU/uU4rEH74XBYIBGq4XJZERNfQN+9uxLcLnduO+eu2AyGDE2Po6sjDQMj47BoLx/n9+vvHw7FhTksWd/9PgpjLtcuGvzeo4CHD9dgYpz5xFQRsiD996NI6dOK+/+DNo7u7Bi2WKULCjECbXN/kPH2CjJzsyAzSqzTgRBmL/ETXj8113hxRWcxBPf70F2gg4//Him8tCmPxAEQRAEYU4xKxI94Y8gorx+yhgX0RcEQRCEuct1y/TkJDDgooz+OJ4+JgiCIAjC3OX6/fM4YMgT5SQyhwi/IAiCIMxpZsXjp3a8VDo1zSYZ/YIgCIIwl5mVEfnBtzx+GeAXBEEQhLnM9Xv86t8QzeFXwi9j/IIgCIIwt7lu4eeqfeTxqyNJH35BEARBmNtcv8c/OYkBJfxUvEc8fkEQBEGY21y38HtCkwhFYrAZ4rg2vCAIgiAIc5frFv4RT4TD/Q6r7pKyr4IgCIIgzD2uW/iHvDEgbhIpMr4vCIIgCHOe6xf+6Tn8KTK+LwiCIAhzHOD/B1kckA8PGHUYAAAAAElFTkSuQmCC;" vertex="1" parent="1">
          <mxGeometry x="1120" y="20" width="510" height="251" as="geometry" />
        </mxCell>
      </root>
    </mxGraphModel>
  </diagram>
  <diagram id="XeDgflxLHlmJHXv4LY90" name="CRUD Usuario">
    <mxGraphModel dx="2446" dy="1996" grid="1" gridSize="10" guides="1" tooltips="1" connect="1" arrows="1" fold="1" page="1" pageScale="1" pageWidth="827" pageHeight="1169" math="0" shadow="0">
      <root>
        <mxCell id="0" />
        <mxCell id="1" parent="0" />
        <mxCell id="K-7Dy93phO_eg-h3hWWZ-1" value="&lt;font size=&quot;1&quot; style=&quot;&quot;&gt;&lt;b style=&quot;font-size: 21px;&quot;&gt;Cadastro cliente&lt;/b&gt;&lt;/font&gt;&lt;div&gt;- O cliente entra no site clica em cadastrar e preenche os fómulários de cadastro&lt;/div&gt;&lt;div&gt;- Formulario de cadastro&amp;nbsp; deve conter: Nome completo, nacionalidade(se for br pode colocar CPF ou passaporte e se for estrangeiro somente passaporte), gênero, telefone com ddi ddd e numero, email, confirmação de celular e confirmação de email. senha forte e confirmação de senha.&lt;/div&gt;&lt;div&gt;- após o cadastro o cliente será redirecionado para a pagina de completar dados bem como data de nascimento e dados da cnh&lt;/div&gt;&lt;div&gt;&lt;span style=&quot;background-color: initial;&quot;&gt;&amp;nbsp;&lt;/span&gt;&lt;/div&gt;" style="whiteSpace=wrap;html=1;aspect=fixed;" parent="1" vertex="1">
          <mxGeometry x="-870" y="-340" width="430" height="430" as="geometry" />
        </mxCell>
        <mxCell id="K-7Dy93phO_eg-h3hWWZ-2" value="&lt;div&gt;Core:&amp;nbsp;&lt;/div&gt;&lt;div&gt;&amp;nbsp;- Microsserviços&lt;/div&gt;&lt;div&gt;&amp;nbsp;- Entity framework e Dapper&lt;/div&gt;&lt;div&gt;&amp;nbsp;- MongoDb e SQL Server&lt;/div&gt;&lt;div&gt;&amp;nbsp;- Padõres e arquiteturas: CQRS, Arquitetura limpa, Padrão Repository&lt;/div&gt;&lt;div&gt;&amp;nbsp;- Fluent validation&lt;/div&gt;&lt;div&gt;&amp;nbsp;- xUnit: NSubstitute e Bogus&lt;/div&gt;&lt;div&gt;&amp;nbsp;- JWT&lt;/div&gt;&lt;div&gt;&amp;nbsp;- Azure Service bus (Filas)&lt;/div&gt;&lt;div&gt;&amp;nbsp;- OCELOT Api Gateway&lt;/div&gt;&lt;div&gt;&amp;nbsp;- Consul service&lt;/div&gt;" style="rounded=0;whiteSpace=wrap;html=1;" parent="1" vertex="1">
          <mxGeometry x="-815" y="-690" width="320" height="270" as="geometry" />
        </mxCell>
        <mxCell id="R61KHlT57wEKPgx_LiH2-5" value="&lt;p style=&quot;margin:0px;margin-top:4px;text-align:center;&quot;&gt;&lt;b&gt;User&lt;/b&gt;&lt;/p&gt;&lt;hr size=&quot;1&quot; style=&quot;border-style:solid;&quot;&gt;&lt;p style=&quot;margin:0px;margin-left:4px;&quot;&gt;-&amp;nbsp; Id:Guid&lt;/p&gt;&lt;p style=&quot;margin:0px;margin-left:4px;&quot;&gt;- FullName: String&lt;/p&gt;&lt;p style=&quot;margin:0px;margin-left:4px;&quot;&gt;- Nationality: String&lt;/p&gt;&lt;p style=&quot;margin:0px;margin-left:4px;&quot;&gt;- DocumentType: DocumentTpeEnum&lt;/p&gt;&lt;p style=&quot;margin:0px;margin-left:4px;&quot;&gt;- Gender: GenderEnum&lt;/p&gt;&lt;p style=&quot;margin:0px;margin-left:4px;&quot;&gt;- Celphone: string&lt;/p&gt;&lt;p style=&quot;margin:0px;margin-left:4px;&quot;&gt;- password: string&lt;/p&gt;&lt;p style=&quot;margin:0px;margin-left:4px;&quot;&gt;- Status: Enum&lt;/p&gt;&lt;hr size=&quot;1&quot; style=&quot;border-style:solid;&quot;&gt;&lt;p style=&quot;margin:0px;margin-left:4px;&quot;&gt;+ Void SetPassword():&lt;/p&gt;&lt;p style=&quot;margin:0px;margin-left:4px;&quot;&gt;+ Void ChangePassword()&lt;br&gt;&lt;/p&gt;&lt;p style=&quot;margin:0px;margin-left:4px;&quot;&gt;+ bool VerifyPassword():&lt;br&gt;&lt;/p&gt;&lt;p style=&quot;margin:0px;margin-left:4px;&quot;&gt;+ Void UpdateProfile():&lt;br&gt;&lt;/p&gt;&lt;p style=&quot;margin:0px;margin-left:4px;&quot;&gt;+ Void SetProfilePicture():&lt;br&gt;&lt;/p&gt;&lt;p style=&quot;margin:0px;margin-left:4px;&quot;&gt;+ Void SetActiveStatus():&lt;/p&gt;&lt;p style=&quot;margin:0px;margin-left:4px;&quot;&gt;+ Void SetRole():&lt;/p&gt;" style="verticalAlign=top;align=left;overflow=fill;html=1;whiteSpace=wrap;" parent="1" vertex="1">
          <mxGeometry x="-50" y="-340" width="220" height="270" as="geometry" />
        </mxCell>
        <mxCell id="e9Z67TnMGRZXzncIXulN-2" style="edgeStyle=orthogonalEdgeStyle;rounded=0;orthogonalLoop=1;jettySize=auto;html=1;entryX=0;entryY=0.25;entryDx=0;entryDy=0;" edge="1" parent="1" source="R61KHlT57wEKPgx_LiH2-10" target="R61KHlT57wEKPgx_LiH2-5">
          <mxGeometry relative="1" as="geometry" />
        </mxCell>
        <mxCell id="R61KHlT57wEKPgx_LiH2-10" value="&lt;p style=&quot;margin:0px;margin-top:4px;text-align:center;&quot;&gt;&lt;b&gt;DocumentTypeEnum&lt;/b&gt;&lt;/p&gt;&lt;p style=&quot;margin:0px;margin-top:4px;text-align:center;&quot;&gt;&lt;b&gt;- Cpf = 0&lt;/b&gt;&lt;/p&gt;&lt;p style=&quot;margin:0px;margin-top:4px;text-align:center;&quot;&gt;&lt;b&gt;- Passport = 1&lt;/b&gt;&lt;/p&gt;" style="verticalAlign=top;align=left;overflow=fill;html=1;whiteSpace=wrap;" parent="1" vertex="1">
          <mxGeometry x="-330" y="-300" width="140" height="60" as="geometry" />
        </mxCell>
        <mxCell id="R61KHlT57wEKPgx_LiH2-13" value="&lt;p style=&quot;margin:0px;margin-top:4px;text-align:center;&quot;&gt;&lt;b&gt;GenderEnum&lt;/b&gt;&lt;/p&gt;&lt;p style=&quot;margin:0px;margin-top:4px;text-align:center;&quot;&gt;&lt;b&gt;- Male= 0&lt;/b&gt;&lt;/p&gt;&lt;p style=&quot;margin:0px;margin-top:4px;text-align:center;&quot;&gt;&lt;b&gt;- Female= 1&amp;nbsp;&lt;/b&gt;&lt;/p&gt;&lt;p style=&quot;margin:0px;margin-top:4px;text-align:center;&quot;&gt;&lt;b&gt;- Other = 2&lt;/b&gt;&lt;/p&gt;" style="verticalAlign=top;align=left;overflow=fill;html=1;whiteSpace=wrap;" parent="1" vertex="1">
          <mxGeometry x="-330" y="-230" width="140" height="80" as="geometry" />
        </mxCell>
        <mxCell id="e9Z67TnMGRZXzncIXulN-3" style="edgeStyle=orthogonalEdgeStyle;rounded=0;orthogonalLoop=1;jettySize=auto;html=1;entryX=0.01;entryY=0.3;entryDx=0;entryDy=0;entryPerimeter=0;" edge="1" parent="1" source="R61KHlT57wEKPgx_LiH2-13" target="R61KHlT57wEKPgx_LiH2-5">
          <mxGeometry relative="1" as="geometry" />
        </mxCell>
        <mxCell id="e9Z67TnMGRZXzncIXulN-4" value="&lt;p style=&quot;margin:0px;margin-top:4px;text-align:center;&quot;&gt;&lt;b&gt;StatusEnum&lt;/b&gt;&lt;/p&gt;&lt;p style=&quot;margin:0px;margin-top:4px;text-align:center;&quot;&gt;&lt;b&gt;- Active= 0&lt;/b&gt;&lt;/p&gt;&lt;p style=&quot;margin:0px;margin-top:4px;text-align:center;&quot;&gt;&lt;b&gt;- Deleted= 1&amp;nbsp;&lt;/b&gt;&lt;/p&gt;&lt;p style=&quot;margin:0px;margin-top:4px;text-align:center;&quot;&gt;&lt;br&gt;&lt;/p&gt;" style="verticalAlign=top;align=left;overflow=fill;html=1;whiteSpace=wrap;" vertex="1" parent="1">
          <mxGeometry x="-330" y="-130" width="140" height="60" as="geometry" />
        </mxCell>
        <mxCell id="e9Z67TnMGRZXzncIXulN-5" style="edgeStyle=orthogonalEdgeStyle;rounded=0;orthogonalLoop=1;jettySize=auto;html=1;entryX=0.033;entryY=0.444;entryDx=0;entryDy=0;entryPerimeter=0;" edge="1" parent="1" source="e9Z67TnMGRZXzncIXulN-4" target="R61KHlT57wEKPgx_LiH2-5">
          <mxGeometry relative="1" as="geometry">
            <Array as="points">
              <mxPoint x="-120" y="-100" />
              <mxPoint x="-120" y="-180" />
              <mxPoint x="-60" y="-180" />
              <mxPoint x="-60" y="-220" />
            </Array>
          </mxGeometry>
        </mxCell>
        <mxCell id="e9Z67TnMGRZXzncIXulN-11" value="&lt;p style=&quot;margin:0px;margin-top:4px;text-align:center;&quot;&gt;&lt;b&gt;Rental&lt;/b&gt;&lt;/p&gt;&lt;hr size=&quot;1&quot; style=&quot;border-style:solid;&quot;&gt;&lt;p style=&quot;margin:0px;margin-left:4px;&quot;&gt;- Id: Guid&lt;/p&gt;&lt;p style=&quot;margin:0px;margin-left:4px;&quot;&gt;- RentalDate: DateTime&lt;/p&gt;&lt;p style=&quot;margin:0px;margin-left:4px;&quot;&gt;- ReturnDate: DateTime&lt;br&gt;&lt;/p&gt;&lt;p style=&quot;margin:0px;margin-left:4px;&quot;&gt;- RentalStatus: StatusEnum&lt;br&gt;&lt;/p&gt;&lt;p style=&quot;margin:0px;margin-left:4px;&quot;&gt;- UserId: Guid&lt;/p&gt;&lt;p style=&quot;margin:0px;margin-left:4px;&quot;&gt;- CarId: Guid&lt;/p&gt;&lt;div&gt;&lt;br&gt;&lt;/div&gt;&lt;hr size=&quot;1&quot; style=&quot;border-style:solid;&quot;&gt;&lt;p style=&quot;margin:0px;margin-left:4px;&quot;&gt;+ Void StartRental():&lt;/p&gt;&lt;p style=&quot;margin:0px;margin-left:4px;&quot;&gt;+ Void EndRental():&lt;br&gt;+ Void CancelRenta():&lt;/p&gt;" style="verticalAlign=top;align=left;overflow=fill;html=1;whiteSpace=wrap;" vertex="1" parent="1">
          <mxGeometry x="250" y="-340" width="220" height="270" as="geometry" />
        </mxCell>
        <mxCell id="e9Z67TnMGRZXzncIXulN-12" value="&lt;p style=&quot;margin:0px;margin-top:4px;text-align:center;&quot;&gt;&lt;b&gt;Car&lt;/b&gt;&lt;/p&gt;&lt;hr size=&quot;1&quot; style=&quot;border-style:solid;&quot;&gt;&lt;p style=&quot;margin:0px;margin-left:4px;&quot;&gt;- Id: Guid&lt;/p&gt;&lt;p style=&quot;margin:0px;margin-left:4px;&quot;&gt;- LicensePlate: String&lt;br&gt;&lt;/p&gt;&lt;p style=&quot;margin:0px;margin-left:4px;&quot;&gt;- Status: CarStatusEnum&lt;/p&gt;&lt;p style=&quot;margin:0px;margin-left:4px;&quot;&gt;- Color: String&lt;br&gt;&lt;/p&gt;&lt;p style=&quot;margin:0px;margin-left:4px;&quot;&gt;- Chassis: String&lt;br&gt;&lt;/p&gt;&lt;p style=&quot;margin:0px;margin-left:4px;&quot;&gt;- EngineNumber: String&lt;/p&gt;&lt;p style=&quot;margin:0px;margin-left:4px;&quot;&gt;- Renavan: Int&lt;/p&gt;&lt;p style=&quot;margin:0px;margin-left:4px;&quot;&gt;- Status: CarStatusEnum&lt;/p&gt;&lt;p style=&quot;margin:0px;margin-left:4px;&quot;&gt;- Milage: Int&lt;/p&gt;&lt;p style=&quot;margin:0px;margin-left:4px;&quot;&gt;- ModelId:Guid&lt;/p&gt;&lt;p style=&quot;margin:0px;margin-left:4px;&quot;&gt;- ManufacturerId: Guid&lt;/p&gt;&lt;p style=&quot;margin:0px;margin-left:4px;&quot;&gt;- CategoryId: Guid&lt;/p&gt;&lt;hr size=&quot;1&quot; style=&quot;border-style:solid;&quot;&gt;&lt;p style=&quot;margin:0px;margin-left:4px;&quot;&gt;+ Void SetAvailable():&lt;/p&gt;&lt;p style=&quot;margin:0px;margin-left:4px;&quot;&gt;+ Void SetRented():&lt;br&gt;+ Void SetMaintenance():&lt;/p&gt;" style="verticalAlign=top;align=left;overflow=fill;html=1;whiteSpace=wrap;" vertex="1" parent="1">
          <mxGeometry x="520" y="-340" width="220" height="270" as="geometry" />
        </mxCell>
        <mxCell id="e9Z67TnMGRZXzncIXulN-13" value="&lt;p style=&quot;margin:0px;margin-top:4px;text-align:center;&quot;&gt;&lt;b&gt;Manufacturer&lt;/b&gt;&lt;/p&gt;&lt;hr size=&quot;1&quot; style=&quot;border-style:solid;&quot;&gt;&lt;p style=&quot;margin:0px;margin-left:4px;&quot;&gt;- Id: Guid&lt;/p&gt;&lt;p style=&quot;margin:0px;margin-left:4px;&quot;&gt;- Name: String&lt;/p&gt;&lt;hr size=&quot;1&quot; style=&quot;border-style:solid;&quot;&gt;&lt;p style=&quot;margin:0px;margin-left:4px;&quot;&gt;&lt;br&gt;&lt;/p&gt;" style="verticalAlign=top;align=left;overflow=fill;html=1;whiteSpace=wrap;" vertex="1" parent="1">
          <mxGeometry x="250" y="-550" width="220" height="60" as="geometry" />
        </mxCell>
        <mxCell id="e9Z67TnMGRZXzncIXulN-14" value="&lt;p style=&quot;margin:0px;margin-top:4px;text-align:center;&quot;&gt;&lt;b&gt;Model&lt;/b&gt;&lt;/p&gt;&lt;hr size=&quot;1&quot; style=&quot;border-style:solid;&quot;&gt;&lt;p style=&quot;margin:0px;margin-left:4px;&quot;&gt;- Id: Guid&lt;/p&gt;&lt;p style=&quot;margin:0px;margin-left:4px;&quot;&gt;- Name: String&lt;br&gt;&lt;/p&gt;&lt;p style=&quot;margin:0px;margin-left:4px;&quot;&gt;- Year: Date&lt;/p&gt;&lt;p style=&quot;margin:0px;margin-left:4px;&quot;&gt;- Transmition: TransmitionEnum&lt;br&gt;&lt;/p&gt;&lt;p style=&quot;margin:0px;margin-left:4px;&quot;&gt;- Engine: String&lt;br&gt;&lt;/p&gt;&lt;p style=&quot;margin:0px;margin-left:4px;&quot;&gt;- CarTypeEnum: String&lt;/p&gt;&lt;p style=&quot;margin:0px;margin-left:4px;&quot;&gt;- ManufacturerId: Guid&lt;/p&gt;&lt;p style=&quot;margin:0px;margin-left:4px;&quot;&gt;- CategoryId: CarStatusEnum&lt;/p&gt;&lt;hr size=&quot;1&quot; style=&quot;border-style:solid;&quot;&gt;&lt;p style=&quot;margin:0px;margin-left:4px;&quot;&gt;&lt;br&gt;&lt;/p&gt;" style="verticalAlign=top;align=left;overflow=fill;html=1;whiteSpace=wrap;" vertex="1" parent="1">
          <mxGeometry x="510" y="-630" width="220" height="150" as="geometry" />
        </mxCell>
        <mxCell id="e9Z67TnMGRZXzncIXulN-15" value="&lt;p style=&quot;margin:0px;margin-top:4px;text-align:center;&quot;&gt;&lt;b&gt;Category&lt;/b&gt;&lt;/p&gt;&lt;hr size=&quot;1&quot; style=&quot;border-style:solid;&quot;&gt;&lt;p style=&quot;margin:0px;margin-left:4px;&quot;&gt;- Id: Guid&lt;/p&gt;&lt;p style=&quot;margin:0px;margin-left:4px;&quot;&gt;- Name: String&lt;br&gt;&lt;/p&gt;&lt;p style=&quot;margin:0px;margin-left:4px;&quot;&gt;- DailyPrice: Decimal&lt;/p&gt;&lt;hr size=&quot;1&quot; style=&quot;border-style:solid;&quot;&gt;&lt;p style=&quot;margin:0px;margin-left:4px;&quot;&gt;&lt;br&gt;&lt;/p&gt;" style="verticalAlign=top;align=left;overflow=fill;html=1;whiteSpace=wrap;" vertex="1" parent="1">
          <mxGeometry x="-20" y="-560" width="220" height="80" as="geometry" />
        </mxCell>
      </root>
    </mxGraphModel>
  </diagram>
</mxfile>
